<mxfile host="65bd71144e">
    <diagram id="pXRDV4Tb2eSLID4Y_jCq" name="Page-1">
        <mxGraphModel dx="554" dy="388" grid="1" gridSize="10" guides="1" tooltips="1" connect="1" arrows="1" fold="1" page="1" pageScale="1" pageWidth="827" pageHeight="1169" background="#ffffff" math="0" shadow="0">
            <root>
                <mxCell id="0"/>
                <mxCell id="1" parent="0"/>
                <mxCell id="3" value="" style="shape=image;verticalLabelPosition=bottom;labelBackgroundColor=default;verticalAlign=top;aspect=fixed;imageAspect=0;image=data:image/png,iVBORw0KGgoAAAANSUhEUgAAAhcAAAIjCAYAAACwMjnzAAAAAXNSR0IArs4c6QAAAARnQU1BAACxjwv8YQUAAAAJcEhZcwAAFiUAABYlAUlSJPAAANLVSURBVHhe7J0HYFvV2f4fSZZsy3uv2Imz956QQSDsETalUKCl0JbZft3t1/47P1rafrRf6QA6WGVvws6CANl7xxmO7XhvW7a2/vc50nUUx4nlxE5k+f3BiXWvju4494znvOc95xqKXnnQB0EQBEEQhF7CGPgrCIIgCILQKxxjuRh+3R8DnwRBEARBEE4NsVwIgiAIgtCriLgQBEEQBKFXEXEhCIIgCEKvIuJCEARBEIReRcSFIAiCIAi9iogLQRAEQRB6FREXgiAIgiD0Kpq44DIXehAEQRAEQTg9DEWvPBC0iNafAp8EQThtfD547E542h1w29q1YA98IZwNDCYjouKtiIqLhikmGkaLOfCNIAi9jYgLQegNNCHh9XjgqKyDvaYejppGOOua4WyywdNmV8KCAkM4exiMmrhI0MSFNRpm7a85OQHRGcmIyUpDTGaK2hYEoXcQcSEIp4NWejwOB9ytbXDWNqF2zTY0btmNpp0H0Lr/iCYoHEp4wGhQjZtwNvHB59GC1weTJQqWtCQkjhmKlKljkDpjLJLGD1OiwxhtUVYOQRBOHUPRy0Hi4noRF4LQE3xuD+o37ETF+5+h4t3VaC+v0/Z6tZ5wPBJGZ8FakApLahzMSbEqCGcPn9sLZ4MNrmY77BVNaD1Qi+ZdVfA6PIjOTEHq9NEYfPPFSJ46GtGa8BAE4dQRcSEIp4DX4YK9uh5lry9H7adbYSs+ovV23VovOF/rDefAOjhVa6DiEZUQA1NMFIxaT5lBOHv4OHTlcMPrdMNtc8LV0AZ7TSuadxxB49YjaCtpQnRGOrIvmo2sC2ciefJIGAyGwK8FQegJIi4EoYe4mm1o2XsYVcvWofztj+HzOBA/LA0pMwYjbfZQJIzIVNYKIfzhEElrUTXqNxxG7Wf7Ubf6ICzJaUg7dwqyLz8HSZNGwBRtgdFoVEEQhNAwPXDjrJ8FPiN17KWBT4IgdAV7vc07D6HstRXY/5cXYTB6kXfVBAy9a572dxKsg1JgirUEYgvhDi0T0enxSBqfi5SpBTD4vGjcfhgNm/fDVlmP2DEFMMZo4iLK1GHFEGuGIHSPJi5mirgQhBDwebxoKy7HwX++ifK3ViImJx5jf3I5cq+ciLjBqeIE2I+hYIjSRGHShDxYUqywVzSibk0RnO12GDKSYEy0qngcWqEFQwSGIJwcsVwIQgj4PB64GlpQ9JeXUbtqE2KyYzHsnvOQPnc4YrISYDSLP0V/x2A0wBRjVr4y2hOH/Ug9mrcVaxVjPAwp2r4Yv0WKwoJBhkkE4cRI6RCEEHDWN6N29XZUfLgGJqsPOZePR86l4xCTqQmLKFMglhAJxOYlI3PBSORcMg6ehiY0rN6Bui370NzcDJvNhvb2drhcLni93sAvBEHojIgLQegGDofYDpWj5PkP4NIam4yFIzHo2ikwJ8bKUEiItLTYUFpaCbfbE9gT3sSPzELu4klq5o9jz2E0btiNppq6DoFht9uVwOAwiSAIxyM1oyB0g6uxBU07DqLyo3VImT4IabMKEZMt6yD0hHff/Qy33PJj1NTUB/aENxwioaPn4FtmIjY+Cu17SlC/tQhN9Q2aUGpBa2ursmA4nU6xYAhCF4i4EIRuaD1wBI3biuB1OZF94RjVmzVEhV50nnnmHfz5zy8EtgYmNlsbKipq4HYfbYjZ629vd2DVqk3405+ew4MPPow77/w57rvvN3jooX/i7bc/RkNDMzye02u8//KXF/H000sCW6FjToxB1vmjYM1Lhqe+GW27DqGpoRFNTU3KghEsMDye/mGREYQzhYgLQeiGlqIStOw7jNjcZCRPylcOnD1h/fqd+OSTTYEtgXi9Pq2RbsUHH3yO5cvXY5+Wvg6HE0ajAS6XG2VlVZro2KwJjE9QUlJ5WtYBpv26dTsCW6HDRc+sg9MQV5gOs8EL5/5y2JpblOVCt160tbWJ9UIQukATFxwz1IMgCMeg9a7pb9FeUYXkiXmIzojvs5U22ZNvbW1HVVUdDh+uwMGDR9Tf2toG1cPvjD9+Gyor61DMKbJa/JKSCtTVNWq/aVS/ZUOtwwa96/hN6hyd4/stC3ZUVzeoeIcO+a+nuroeti5ewuY/fnvH8RmfwoDHt9udgVh+7HYHDhwow9///oqKN3PmePz3f9+FP//5+/jFL+7BFVcsUGLjiSde08TZDq0xbwv8Elr61KOmpiGwdTxMP96P0+lS18FrbW5uVefTA9MnFDg8kjA8A9akGKCsFnZbm/K50APFhYPvlnG7VXoJguDHUPTyfR0lYvj1fw58EgSBcNGsrd//Myo/WoXBt8xA4R3nICY7MfBtaDzwwMOoqKjFyy8/HNjTNWyAly5dgyVLVmHjxl2qZ5+enozzz5+BSy+di3PPnRyI6YeCY+nStWr4YOPG3cppMiMjVYt7jmpYP/hgNV544bcoLMxV8dva7Fr8dVr8ldi0ifHbkJnJ+Od2HOullx5GQUG2ik8BsGHDLrzxxkqsWbNNNcipqYmYPXsiLrnkXFxwwUyYghxa2YivWLEBb765Qh2fQiMjI0UTCvNx5Eg13n//Myxf/gTy87OwY8d+Ld7H6vh33rkY5503HTEx0ep4FCkUFhQGv/71P7T42bjoojkqHQiHTRIT4/E//3Of2u7Mvfc+hJSURNx++5W46abvK6sIp42mpBy1OPE7iphQOPLGVhx68nMc2VIG1zcvhzkzBdaEeO0aEpGcnKwdN0V9jo+Ph9ksr3EXBCLDIoJwAtgTdWk9Xr4q3Wg2IjY7SfvbN9NO6Vuwdu0OvPLKMlgsZtx886X47ndvx9VXL1SWAA4PsEHWLQCNjS2qYX7tteWwWmNw662X4XvfuwPXXLMQZWVsyD9HeTl9HPyWCB7fH3+p1ghatfhXaPH9x6d1gcMTfp8Iv+9Ac7NNO98BTRB9hNjYaHzxi5fi+9//Mu644yrVUNNPYvnydUqwEB6fAofx2fB/6UtX4DvfuQ2LF5+HAwdK8dlnW1Q8HV7btm37sGDBNIwaNURdU1RgFUwKDN5TXl6mEjG81z17DgV+CWUJ4flOhP49hdOPfnQnxo8frgmiCZpQua8jXHnlgkDs7jEnxSAqPhpwe+Hjq/M10UVrBa0WDPS7EOuFIByLiAtBOBFaD5ozRTxar95oMcGSFtcjR86eQMsGG2uO3U+fPhY33LBINejXXbdIa3wLUV/fjGXL1inrgD9+DVauXK998qkhhRtuuFATJJfg2mvPx/Dh+VoP+tihGzbmK1duUI33rFkTcOONjH/pSeNTQFBIzJgxVhMt5weOf4E6Hy0jH364Wg2bEAoa+jZw4Uo25Pr18HdDh+Zpxz9WlLHxp6iZMmWUsm50BS0ZM2aMU+eg5aOnJCXF4/rrF2Hw4ByMHDlYE1SXdwQeN1RMcdEwxZpVfjC0OeF1udU0VAoKCgvdqVMXcoIgiLgQhBOj9ULdLe3qDai0WPCV6X21roXemF944Ww1RMChgLi4WAwbNgiXXTZXaxwL1DAHfSYIG1s6PF588Tmq9z9oUJaKP3ToIFx++Txt33QVT4cOkrQecAhk/vypyioQHH/+/GmBmH7oW0GxM2XKaBWXDXx5ebUaqhk+fJAaYlizZnuHJYU+GatXb1VDIHPnTlG/oTWCwoX7zj13ioqnw2GYpqYWNexDK0VX0JKRnZ2m/EA45HO24LtiuHIn84PJ5QU8XjU7hIKC610w6JYLQRD8iLgQhJOgZgEoU7fWJTf23fskOLxQWVmrxAQb3GDy8zNV776srLLD4ZL+DOXltSgszENq6rFrbuTlZSi/hmBo8eDwCsUE/RGCoRDoHJ+N+aZNe/CjH/0frr3227jggq/h/PO/pv29G4sXfwt/+MMzas0KfZoo/TfoaDliRMExvg2EPhydj9+foDWGz59/9BzA4Q/mDVowKDJkOqogHIuIC0E4GZquOBOj6Gyo6O/A4YlgJ0kSFcV9Ju17b8eYPv96PO4Txu88zEEnyRMdn/v4m2AoYhjv61+/AT/72dfxq1/dGwj34aGH7scjj3wHv/nNg0hL8wsb//X7r6fzOzd47M7Hpx9HcnKCmvWh+210htfL4SIeMyEhtFfY95nPgy4wDEYlM3Rxod+3Hvrs/ILQzxBxIZwQVpwVFRXYsmULPvroI7z88st45pln8NRTT+HZZ59V29zP7xmP8YVTg06cHEagb0XnxpZDEW1t7cqHQBcGnJXABpe+C53j0xmTvwmGx09I8B+/87RWxudUzWAYPz09BRMnjlTDGrfccplyGvUHv98CnUE5tEKioy3q+ulM2fn4HP7ofD20tgwenKusI5za2hUcilm7drsmRGLUsI8OxQatCZxREtyY03LA++P+YPwvGusd4cFjdZgvNJjneV4KC7FcCMJRjFqJY6nzB0HQoIm3oaEBhw4dwooVK/D000/jt7/9Lb73ve/hgQcewD333IP7779fbT/88MPqe8ZjfP6Ovxd6RmJinBri2LXroHoHh8PhfzEWfRo4lZI9eA45sNEnFBp6fDpT0sFSj19UVKJCMIw/ZEgudu48oPwvguPz+EVFpYGYfjjldNiwfDXDhOthsKHnEAgDf8MZHFxPQm9QORRCx8lt24qU/wiP74/rwO7dh7B//7HXk5ubgUmTRio/E35P8aH3/GmxoG8JHT7pNEohMmZMYeCX/rRivNLSo/dBSwuvacuWvUpwBUNnUlZvbW0O9bvTQWkL/qPBY/HcehBxIQhHMT1ww8yjr1wfd1ngkzCQoUhYsmQJfv7zn+PVV1/F6tWrcfjwYa3ybtQaC/8LmygguErhkSNHsHXrVnz66adYuXKlMn+npaVpDUJq4Gj9GK8P9sp61H62Fe7WJmQtGu2fjtrDRbTee+8z1VhyhsaJYJvH8Prry7SGyoesrBRlDWDD//zz7ykHS858GDNmqNqv89pry1Rjx2mX0dFmJRKee+497ZyfqgaP6zn4hy4M6rivvLJUDbFkZqYo6wcb/WeffVetQcHGklNN6ZPBOFFRRnVuiglOL2Wjri9+xamur766DLNmjYfVSuuFQYmJF198v8PqQYfMvXsP45lnluCjj9aq7dtvv0oJHVpdkpPjVdrQGZTHzcpKQ0yMRYmE1au34YUXPtB+X6Km186bN1XdH9m7t1hLj0olLuhDwjzHNTho5Xj00Re0/LgP48YNU46qhI6p7e1OJX7oz0Lrjy4QQsFR3YKGjSWo31UJw+RCeJKt8GmChcM/TKfo6GgtDazgOhdc76InxxaESMVQ9NK9HVJ++A2PBj4JAxE2LrRAvPvuu+pvUVGR1ttrC6lHxkqWFezIkSOxcOFCXHrppepvf65ofVoPumFLEXb/9inYK0ow4aGrkTI537/mQQ/gIlpvvbVSNZBdQQFwzjmTlMXi+ec/CFguaP3xqfRj4z158ig1DEHHTjbStCSUlFRpDfD7qofP+IzLwOEJ7uO6GEuX/l3N2ODQCfc9//z7ynIRHJ/DJcXFFdi9+yCWLXtMWUQ4tMEZKUuWfKK+47AJLQpsUK3WaGVN4HGvu+4CJRR4fAogXg8tKfrQBI9P34r9+0uVkNEX0aLQodMoLRebN+9R1g5aa3gONv4UKPwd75tpw9/ovhwUD/wdl1XnPi4ZzvxHYZKamqwE17x5U/CXv/xQxX/xxQ/UTBkKEKYdWbRoNm677Qr1uTuadpTjwOOrsP/lzTDcsRDOwWnwWC3qnBaLRQkKCuqsrCwMGjSo4zoFYSAjlgtBwRcx0QLx3HPPab3J97Bz505lnQjVjMx4jE/fi+rqaiVKEhISVK+S31GgsCdN9EYt7OklywV74mwA2bB1FSZNGqWmmrJHT+sAk4bmfjoPUkxwXYk5cyapRl9vuOh3wLj6EAHj8ztaDGjdYONMiwDXmqAlwu8UadXix2vxvSo+G8eMjGQVn9dB0cG1Ndio606UHL5gY89hBz5D+j/QwkDLAFfqTEvzWwL0+PwtLRg8Po/J6z/nnMkYPboQmZlpapotnTn5/GmJKCjIUetZ+FfldKl743XSysD1Nc4/f6Y6hu5rQngO+nowa+rnYToMGZKnCdoZ6jOvb+LEESo+4/L6aD1iWvG+OStnwgT/990hlgtB6DliuRC0Ctqp9Vp3az29v+Cdd97RepHlgW9OnYyMDK33OE9rrL6orBkUGrGxsaoSZmVM0RHuIqO3LBd9BcUa/QsoJPSls10ujyYM96s1MT7/fAv++tcfab1+/3LejE+HRw6rxMZaVOPI+LRwcJiDwwp/+9uP1NRU4ShiuRCEniOlQNB6uCVYtmwZXnjhBVRVVQX2nh719fX48MMPsXz5ciVc6urqlLMnX1etv6qavhuhWkaE4+FaF4899op6JwjXsLDZ7Gr44eWXlyrHRvbi9dkchLNC/v73l7VnrcdvV46fL7/8IbZv36fFn66Jv64XtBIEQegJIi4GOOzNbt7MV1u/rRw0e8vjncfhWyPp6Ll9+3blDEphwXNwv+4Yqg+V9DUeuxNtZdWo/ngTmvcUqyW9+zvsIfNFZXR+/OUvH8f99/8W//u/T6thGPop0KGR/hc6tGzQ8fPzz7fiF79g/IfxyCPPaM/Fpl6KxvjBYkQQBOFU0cQFe456EAYa9JGguOBaFb0NrRIHDhzAnj17UFpaqvw6GGi50F9VTRFyRqwXHH3RgquhBbWrtqDk+Q9R8e5nsBVX9FuhYbFEqfeQ8MVfnAVBX4OcnHQlLOirwPdp6FNXCYdD+E4N7qevhD9+hiYsJikrR/BUV0EQhNPBUPTSPR01+/Ab/hL4JAwU3n//fTz22GN44403Ant6n+nTp2PRokWYOXNmh9MbA/0wkpKSEBMT0+GD0Zf4PF607CnGwX++hcql62DWGtfBN1+MlOljYB2UqbZN1piO94eEu8+FcGYQnwtB6DlSCgY4O3bsUD4XfUltbS24Tgb9LGi10C0Y+hDJmXrpE0VD/MgCDLntMgy6+jw0bT+AHT97Auvu+AW2fv9RVC3fANdZfEGWIAhCpCDiYoDDRr+mpiaw1TdQRFBgUEDQ14JDIhQV/EvBoQ+PnAmM5ijEDx+E3CvOxYh7r0dUXCzaSqtQvXIj9vzhWWy6//fY8/tn1dCJl4JHHE4FQRB6jIiLAQ6FBa0IfQlFBAUGfSs6CwxdXJwJy4VOVLwVieOGouDmi5B31TxYC7LhqG1E3ertKHtlOQ4//S4OPbkExU++o9a4cFQ3BH4pCIIghIL4XAxwrrjiCixdulQ18H0F/SkmjBqDb91+lxIYUVx4KCYacXHxSElJQXJyEhITk5Q/xhnF41UzR4qffgeVH66F1+XWgkdZKziEYoqNQfywPNir6xE3OBHjfnolUqbmIypBpmsOJJp2VeDQPz/Fgde3wXB7wOciTnwuBOFkiLgY4JwJccF3WEy0pOE7ljFq28BpGwaDVgkzcPlmLfBV1tr2mYaCwt3aDm+7Az7OmAqUBjp2xmSkwNnYAk+bHdYhqci/YTrS5w6DOUmmaw4kbAdrceSNLShbdQCGW+bDOSwTnnguWibiQhBOhIiLAc7NN9+slvvmGhR9BVflnFI4CvcvvEoNf9CNwV8xmxEba0VCYgKSEpPUzJEzic/jQd3aHahesVHNItFaBcTmZ8GkXZfX7YFPEx7m5Hi1BLinvQ3W/FREZ8T3ePlvoX/jbnWg/UgD2trcMCyeAef4fHhS40RcCMJJMBS9GCQubhRxMdB48MEH1TTUvpwxkp6erqah3nbbbR0WElbMnIJKQcHvWTHn5OSo784ErmYbWotKUPzMe6hZuQm2kkpNXBhgHZQF6+AcxGanwhQXC4PWUFB82IpLkDg6G1GJsTAGpqoKAwNXix1tJfWwtTg1cTETzgmD4EkRcSEIJ0PExQDnf//3f/H8889jw4YNgT29z7BhwzB37lxcdtllSlzQ74IVMN8xQnHBijk7Oxt5eXmBX/QtXK2zeddBlDz3AYq1wBeExWSnISo+Rs0eSZszAVnnz0DKlJGo37QHe3//nCYuDmD4PQuQMDILptijrzwXIh/bwRqUvb4FpR/vl2ERQQgRERcDnI8++gh///vf8dprrwX29D6zZs3ChRdeiAkTJoSFuGjath+lry5H0V9egaupFfHDBiFj/hTkXHoOkieNQHRaIkwxmoAwGdG4mYtoPQ17xWGM/+VV2veDZBGtAUbTzgoc/MenOPDaVnHoFIQQ0UoBtYUehIHG+PHjMXbsWDVroy+Ii4tTFW5+fn5gz9nD5/XCdqgc5e9+pqadps0Yg7E/vB3jf34Xht19NdLPmQBrfibMSfEwRls6HE/5h38NfM22JUrCQAvac9dXbfXnBf9HQRBOjEjsAQ57W5MnT8a0adMCe3oPLufNIZEhQ4accWfNznBWiLOhBS1FpWo7dcZYDLntcgy+9VLkXjEXqdPHICYrVS2yJQiCIJweIi4GODThTpkyBVdeeSVSU1PVmhS9AU3GXLeCooXiovN7Q7it7wv+3FcocVHfBFdzK7IumIExP7xdLaKVMLJA+VkIgiAIvYeICwEFBQW44IIL8IUvfEFZMnoDWirOPfdc5WfB8WhCXwsGQjFBYUMRwtDX49RRsdGIK8xF7mXnKr8KERSCIAh9h4gLQVkrBg8ejDvvvBMXXXSREhunQ25urnLiXLhwoRIWFA8UFcGvV6eY4HnpEMfQWxaTE0Ixo52Di2MZ+VrxPraUCIIgDGREXAgKDmFweOSSSy7B+eefj9GjRyM2NjZkiwLjcbGsESNGKGHBQMHCtSwoKLxerwp6XAoOXVxwBU9uC4IgCJGBiAuhAw5VUBRcffXVak0KCoXMzEwkJCSoaaP68IU+pEFxQPHA7xlv+PDhWLRokRInY8aMUfFIsLgI/i2Pyd9TYIi4EARBiBxEXAjHwIaeFgeuS/Ff//Vf+OIXv4j58+croUGHT1ozGId/OeQxatQoJSZuueUW3HPPPZg9e/YxPhYUFBwOYeBnCgv+nqKCx+BfXbgIgiAIkYHpgRum/yzwGanjrgh8EgYqLpdLCQFaGCgCuE5FRkaGmvHBoRJ92ur06dPV34kTJ2LkyJHKz4JOnBzioIDQfSx0UcFtCggKCQ6fcBiGFg8GnoP7+9zvoqd4feq9Inzturu1CVmLRiM2O0mtfSAMHBzVLWjYWIL6XZUwTC6EJ9kKH9c80fJ55zzNBbV0i50gDGTEciEcAytKNvZ6RUnRwOGOcePGKZ8MiopgYUGLBlfX5G8oJPhiMj3owoKwEqZYCRYW/A23w1JYCIIgCKeMiAvhGPReGBt/igsGigEOYdAqwV6ZbpWgleNEgeKiK2GhH5d/eVzu43dhOyyidUKlHypomT7wQRCEUBBxIRxDV0MXuhigpYE+EvrsDgaKja6C7rTJuPyNbgkJFha6/0bYCgsN3od2Q9onrXHxaEHamAFHh65gNlB5QRCE7jDKq0WEYCgM2NgHWxp0gcFAUUCRQWFAEcJ4nQP36w6bwQJFFxa6SGFc1XiHK1paRCVYYYq2wOvywNXcBp/Hb40RBg6edic8dpfKD74Ys6bApU8mCN0hpUQ4js7WCzpqJicnq5ebMfBzsNDoKlBEnOx3wcMs4YrBaIA5OR7G2Gh4nR446mzwejyBb4WBgtvmgKfNSTMWEBct4kIQQkBKiXActCZ0Hs6gMOBUVE4zZeBnXTBQRAQHXUwEx+c2v6PooGiheOGwSTiLC/ZUzYlxiIqLgdfthb2yGT6XWC4GGu6mdk1gaOIiygiDNUb7K9OmBaE7jD4c/U8QOkMBQJGhWyMoJigWOD2VC2edLDAOBQZFBUWKLirC2ceiM3xLanRqIoxRZjTvLFcmcmFg0V7eCEdjGwzxmrCIlWERQQgFKSVCt+jDJBQYumWCwoFTUPPy8o4LOTk56gVousVCt1bQxyKsLRVdoV0vX3gWm52Fhi1lcDa0weeWoZEBg8+H1v01aGu0w5ebKsJCEEJESorQLbqTJ4dKKBB0Z02KDVokKB6Cg26lCHb6pAWEwy39TlxoxA8bpIV8tB9pRPOuCjhqbYFvhEiGTrztFU2wHa6HQ9OThvx0jhkGvhUE4WRISRGEbqDlInHsUBg0gVXzyX60HqiBzyvDiJGOx+ZE3bpiJTC89LUYnCGWC0EIESkpgtAN0RkpSJowDCmTRqF6ZREaN5f6Zw8IEY2zsQ0lL2yAraYVyE0BCjPFciEIISIlRRC6waD1VuMLc1FwyyUwGM2o/ngfqpfvCXwrRCL+94kcRsOGYrjSk/zCgu+UkTW0BCEkRFwIQghY0pORuWAKUqaPRXtZKyre2YHGbUfgaXcFYgiRAhfM4rMte3s77C0OeIdmwzBEExcBfyEuf69DPyLdlyisF4QThDOMlAZBCAFTjAXW/CzkX3c+LGnpqF1zCKUvboDtUK1/9Uah/6NpBq7AaiuuQ+Wy3Sh7byc8g9JhGJ0HZCX7owQJC11QMNBhuT9NsRaEvkYTFywsehAE4URwzYucS+cg6/JzYIhPwqF/fobiZ9aieU9lIIbQn6Gw4FTj/f/4DCWvboE3LgaGq2YA+Wnaw/e/sI8v4+NfCgs9UFRQXDAIguDHdP/1034W+Iy08VcGPgmCcBzsqWoCw2eNhsdsREtJFWz7KuCobAK8PsQOSoEhyv8yN6F/4Wqxo3H7Eez903JUrdgLe0wMMHcMMC4fiI1W4oLwbcC6uOi8ii3/cvq1PH9BEHEhCD3HaoFP69U6jUBbWR3aDtfAXlqvGiify6MEiCkmCgYZgw9rOJ3Ya3ejcXclqj8pQsWS7Sh7ZwfscVZgSiEwbSiQFKemn1JQUFjQckForeD6LVzPJfiFfFzXRcSFIGh9sX0v3N0xHjLipscCnwRBOBEOhwMtLS2or65FxTufoumDDXDuKlZLIORdMhZZ549G4vhcmJOsSmQYzSY148QQFRAb+rh9pDVCHDZwauKK9xmO60FQTLi9/uB0w2NzwFHTgpIlO1C5fI9aiRNpCTBcNBmYOBhI1oSFhj4cQnHhdrs7hIW+Yi2XuNeXuRfLhSD4EXEhCD2EDUxbWxuamprQUFWD+qLDaF67C/Zlm2EqbwANFtHZSYgfm4ukcTmw5iUjNiMe0WmBxkpr3NgQGzTREUlQWLSV1CNau1dzUmxgb3hAPed2eNBe1QJbVbNaCK1lxxHYi6r8bz1NTYBvwmAY5o0B0hOBGMsxfhYUFgyEwyG0WNBaob/1V38pH0WHIAgiLgShx7DBcTqdaG1tVQKjsaYWjSUVaC0qhX3/EXhKamCsaYal3QGL2YiomCiYos3KiqF+H1jdk690jyR4X+5Wh99awzUhwgiKC58mEtztLjW7x6UJIReM8CbHwTcoDSjIgIF/M5M09aCJPkPXwoJOm7RO0L+CgkJ/KzCFBffLdFRB8CPiQhBOAVov7Ha7EhjNzc1KZDQ1NqK1rAqO0hp4ymrhq2yEwWYHnG4Y2p0wNNhg0PYhyarM76p3HCnQF4Grlh6sBFxaQ5waD7Cx5uvJw2WYgNdh0a6HwscaDQOHPfgyMq6+yesNPA+KimBhwc9EHw6hkKCfBUUFg/4uHbFaCMJRDPuev+uouPjC44FPgiCcDDY8LpcL7e3tsNlsSmDoIoPbFB78nm9QNbbYYTxSD+OOEhj2V2kFLQeGMflAin+YJCJwuoDyBuCV1UBLOwzDc4D5Y+DL1QRGmAz/+OgHEh+thRgYos1Q41dB6CKCz1YXFwz0oaCwoLMmrRO6qAieIcLvGEcQBD8iLgThFGEDxOERXWDQyZPign+5zf1uCozSWhg3HoRx3X54Lp4E76hcTVhoPeVIGhahgNpfiaiXV8NQ16oEhW9wOly3nwcfrTSmMLlXpjktGCewpugCQ4fDHBQNnHJK64Q+HKILC91iIcJCEI5FpqIKwinCHq2+QiM/dw6cnWAorYNh/X4Yapvhmz4M3rG0WGjCgqZ59pwjJBjanDDSmXVPuRoCgtsDg8MN2Bx+ccFhB1oOuvjtGQ18LgwnQH92FAv0r6Bw0H0sKCj0EGyx0J+/IAhHEcuFIJwmnYdIlBWjth6NB8rQ/OEGeOs0YZGdDM/M4fAlxMAbie1QRQMMGw7A+P4WoLlNCSs25r7EWHgXjodPu3dDQXogcvhCkaALRooLfSiE004pKPS/MhQiCCdHxIUg9ALBAqOtuQWN+w6jetkGtH6yDYZpw2CcPQqeRE1YaPGCnQQjBV9xNbwrd8C7fDtAJ1a1rodJzSAx5KXBcO5oGC+cBENcjCY6wlNddRYWtFrowyEUFQzcFmEhCN0j4kIQegndB6OpqAQVb3+KkqffReYdl8A8eSg8yXFwul1qlgnFBUVGJOHeeRjtr6+Ga+1e+OxOGJLiYMxIgre+GXC4YRqajeiLpiB6wUQYYsNzVoU+HMJAYUEBQTGhCwoGrnEhPhaC0D0iLgShl1Bv1CytQsmLH6Jp5yEkThiKpIVTgLREuA0+ZdmguGCINHFhW70TtY+/A/uuw6qRtuRlwDw4C87iCrjpb2IywKwJjPQ7LkXshEJEJccHfhk+8LppsWCgiNCFRHDQrRv8KwjCiRFxIQi9gNflhlPrpZe+vAzNuw4hJicNg75wISxZqfBFGTsWYqKo0EMkUfveGhz41ZOwl9YgrjAH1mF5sOSmw5qZCmdVA2wHjqC9ug4x44Yg+7rzkDxtNKISrIFfhwe6cKBVQv8bHLhPEITQ0MTFV4PExROBT4IghAr9Chw1DahfvwtFj76M9LmTkH/d+UgcMyQQI/IpfWkpNn/rEU1keZFzyWxY8zPVMNHo794KV5MNdWt3omr5BjTv2I+Cmy5CzuXnIn5onlYDBQ4gCEJEIVJcEE4Tj92hGs/dDz2FtDkTkHPpOUgYkR/4dmBAyw20bkr2BdOQdcEMWFKT0LT9gHpBGIVG3lXzMOmhezDr6Z8jafxQuBqa1XLcgiBEJiIuBOE08Lo9qPxgLaqWrUPShGHIuXi2EhacKTFg8PqUv4nJGo28a85D+rkTYU6Jh6OmEc66JvWiNlNsNCwpCbAWZCFp4nDEDc2LuHerCIJwFBEXgnCKsLdet3o76tfuUA3ooKsXIHFsIcyJEbSsdwh4HE4lHhLHDUXK1NFKQESnJimfCtvhSrhabP6I9GkwRyE6PRmW1ES1LQhCZCLiQhBOAa/TBXtFHcpeWQ5nQzPSZo1D9sWzB5ywIG5bO6LTkpTVJjozBUaLWQkIWnCa9xQr64UgCAMLEReCcAq0H6lB2Wsr0FJUqgmL8cpqMVB74p52B2Ky05B75TxEWWPUPiUuRg1GiyYuHCIuBGHAIeJCEHoILRa1q7ej4r3PkXvFXOVjEBUfXtMqzyQc4ogdlImYzBQY+P4Q7ktPQsLIfLTsLRHLhSAMQIz08O4IgiCcGJ8PnjY7atdsR8P63WoqZcaCKbAOydFK0sD1H6C1wpxghTHa0mG9MSfEwaoJDreWXlz/w93apvYLgjAwEMuFIIQIZ0S07C9Fzceb4KhvwtC7FiO+MBcmNqoDGQqKTkNCxmizsmhEpyfB2dACe2V94BtBEAYCIi4EIRR8PtULP/DYG/A63Goti6QJw9UsCaFrjBaLSiPOFrEdrgjsFQRhICDiQhBCoL2iFuVvr1IrcSZPGo6MeZPVtEqZTnliaL1Q4qK5DW2HKwN7BUEYCGjiQpwuBOFkuFra1IvIypd8ptaxSJ0+BrF5GYFvhRNhorgYP1T5W9hKKmVFTkEYQIjlQhBOAt8bwpdu1W/Yraaf5lwyRy0WJXSPwWxGwvBBgMcLR3WDJjLaVXoKghD5iLgQhBOhtYNeh1NNOW3cvAcj7rteLQxlihngDpwhwuW9o+JiEZOdqqaothaVwsd3kAiCEPGIuBCEE+B1uTRhsRr2qjokjBqCjHlTEMUVOMXPInS0tIobnKOmq/JV9ExTQRAiHxEXgtAFXocL7eW1qPpoHUyxMchcMAUxOWl+J06hR8Rxum58LBp3+N+SKghC5CPiQhC6wFnfhLq1O9QUSg6FpJ8zMfCN0FOsg7PVCqbNu4vhsTvBab2CIEQ2Ii4EoROc1dCyrxQHHn9DrcCZOmOsrGdxGnClTktiHNpLq+BusanX1AuCENmIuBCETtA3oH7jbpgsZmWxiOPy3uJnccrwLalqtc6sVLQeKoerqTXwjSAIkYomLvQ1LsRUKQxwtCJAs339+t1o2VeCrAtnImFkAaISBu5LyXoFTZhZUpNgLchG60FNXDSKuBCESEcsF4IQwOfzor2sGk3bD8CriYyCL1yoetzC6WNOSUDc4Gy0ieVCEAYEIi4EIQBnMpQv+RQ+rwdps8cjJltmh/QWluR4JS5sxRUiLgRhACDiQhA0OBxCq0XtZ1sRnZ6CjPOmwmCU4tFbmJMTYC3IUbNvnBQXMmNEECIaqT0FQYMvJKteuRGGqCjEj8hXr1IXeg8uohWdmaxeW+9qtsFtaw98IwhCJCLiQhjweF1uZa4/8tYqpM4Yo162ZYyWJb57E0OUSa11EZ2RDHdLGxy1TYFvBEGIRERcCAMeZ20jWveVwHbwCNLnTET88PzAN0JvQv8VTuv1tDuUpUgQhMjFqMY+9SAIA5DGbfvRsr8UWRfOUkt8myzixNkX0HphHZTlFxd1YrkQhEhGLBfCwEUT1HwNeNOOA7BXNyD3irn+qaeyYFafYNTEReygTCUunCIuBCGiEXEhDFh8Xh9sxeVoK63WGr4opJ8zQfkFCH2DwRyllgL32CkumgN7BUGIRERcCAMWn9uNyo/WKXM917UwxVhgMIrVoq9Qlou8jMCwSGNgryAIkYiIC2FA4nN74GyyoW71dpiT4pE2Z4IMh/QxFHGxOWnqdfbOxlZlORIEITIRcSEMSFwtNjTvPAiv04XY3HS1eqTQt3BRMr6nhSKD6U4LhjiSC0JkIuJCGJA4qhtRvWIj4oYOQvzQvJBeqe7xeFBUVITa2trAnlOjvLwchw8fDmydOm63G3v37kV9fX1gT/hjMJkQFRejhAaXAefr7UOB98h75T2fKna7Hbt27UJT0+k7kzIPMC8wTwiCcDwiLoQBib2qDlVL1yF54jAlLkKhtbUVX/3qV/Hqq68G9pwaf/rTn/Dzn/88sHXq1NXV4bbbbsPbb78d2NM/oNMsrRfOhuaQh0Z4j7xX3vOpUlxcjKuvvhorV64M7Dl1mAeYF5gnBEE4Hk1csHDrQRAiH0d1PdpKKpVpPmFEAaIzUwLfnByfz4fm5mbVAyZsWL797W/jnXfeUduh0tbW1iuNklfr9bMXrl9PX/Hoo4/iz3/+c2Dr9OHQCJ07nQ0tajnwUOA98l55z+TDDz/EAw88gMbG0B1DaWVgfKfTGdhz6vB6mBeYJwRBOB6xXAgDjtaDR2A7XInEMYX+RbNCGBLpCqPRiMzMTMTHxwf2RCapqakq9BbKcmGOgquxhQopsLdnxMXFISsrSz0DoWe88cYbWL16dWBLEPoGKZnCgIJm+Obdh9FWVo3si2ermSKnitVqxfe//30sWLAgsCcy+eIXv4hbbrklsHX6mBNij1ouTnHGyLnnnosf//jHSExMDOwRQuWvf/1rj61tgtBTRFwIAwetHfPanWgpKoWjthFZi2bAnBgX+FI4U+g+F7RchOrQKQhC/8J0/3WTfxb4jLQJVwc+CULkwYascVsRmrYfUBYLLvfNl2lxfQuOnXMsfunSpXj++efx7LPPqt4dfSMSEhKQnJysxtmfeuopTJ48GbNnz1bf/eAHP4DL5cLIkSPVOegTsHHjRrzyyiv45z//qUzQJSUlsFgsyMnJUXHee+892Gw23HDDDWqbMw+WL1+OP/7xj2ocn71xnq87eH5ez5w5czB9+nS1j7MpPvvsM7zwwgv417/+hTfffBM7d+5U+/Pz87VbNaig+2u89tprePrpp1X8jz/+WB3zmWeeUbMqZs2apY5Jn4s1a9Z0bNP/4q233oLD4VD3+J///AdLlizBjh07kJaWpiw6vN8TwRVR7RW1aipq2syxMFjM2L9/v7pWXjOvadu2bSpudnY2oqKiVJryGu644w71PD744APlGHvOOecgJiZGPT/6U7z//vvqep577jmVpnxmTEsOXdXU1Kj0uvzyyzFu3Dj1vEtLS/HEE0+oe2ea5ObmwmQyqXOfjLVr12LLli3qenh+/ra6uhqvv/66Sj+mJ/NSWVmZGlLiM9WHcOj7sXXrVnWNPPe7776Lffv2qTT49a9/jaFDh6rr4D3xufE4jMtrZ35iPF4j00Y/JtOM39OK1vn66Tx85MgRREdH45577lHXfujQIZU+L774IsaMGaOGmAShNxHLhTBg8GmVesOmPVqv2YjEsYUwao0ahQVhw7Ru3TqsWLEClZWVqgFj4PTHqqoqFaczFBWsoA8cOKC22RCwgV21apVqnOkXwIaNv9fjBMNGhpU+nRN5HB6PDbPZrF3XKcDGko0Wz89pkklJSSocPHgQn3zyCTZv3qwEAaGg4bj7p59+qgQNr5Pn5T4KBTbmOps2bVJBh58pvNhIsXGjoGCDxgaS+9lgnwz/WhdRHbNFeH2ff/65Eg88Dhtiiq/t27ef0PmSjSMbXd2ZlQ07r4fpSNHEY/B+KFK6mqrLe+azohBhY03BxefFv6cC8wzTjjNR2tvbVbpTHPBZUOxRYOowT/F+eW3MY4zLPMJ8QPHAYxGmwfr169Wzo0jRnyfzFo9L0ag7uDLtdYHUGZ6Lv6Hgo8CkGGL6FBQUqMBtQehtRFwIAwOtovc63WjYvA+mmGgkTxgW+MIP155gr5ON1Lx58/Cd73wH//Vf/6WsDaE2OGwIP/roI+zevRtDhgxRM0lo2ZgxY8Zxjods5NmIsEFgo9LS0qJ6wYsWLVK91lOBjRp7wWx4x48fr87NQEsLGzdO59RnqXCdDQoBChpOz/zhD3+oplYSXYCcDMahOPrSl76En/zkJ7jvvvswduxYJUy6ElLB+B06TXAGhkUoChgorO666y7lx3LZZZcpoRFq2vOctFpQWFxyySX47ne/i6997WvKYtH5GExrPiNaP5j2TKvrr79eWX9OVdixceezZ5rwWEz3r3zlK8paQHFBK4cOhQGFDfPI9773PRVmzpyprj149glFEae8UnjQOsVj8jkNGzZMCZRly5ap84VKYWEh/vCHP2DUqFG46KKLlKWMQbe6CUJvIq9cFwYEXrcHrmYbWvaWqMaNM0WCoahgD5GNGk3LNDkz3H777Zg6dWog1slhQ82GhI3Gddddp0QCe/WXXnqpMsUHQ4sFGw4OMQwePFhNq2QDwwb2VGGDz14qG4urrroKGRkZKvDcEydOVI0ap8ESChs2eLxOih9eJ3uxvF+aybuDwwp33323aujYC+Y5L774YtUQ0ipwMvwOnVFwNfgX0dKHQNgY83i8Zg47UWzRmhAKtJawJ8+1MDh8QzM/G9NvfOMbxzWetAZwCIHigiKSYoBDEacDxRsFzp133qnEHO+B5+X5mR4UHzq0LvE533zzzSqPMe3nzp2rhsmCxQ3FBi0xFBYUnfrz5PXm5eUpS1tXlgpBCAfEciEMCFwNLahfvwsxWanq5Vmdp5/SvE6BwUaJQwS0NDDQZMwx/1BgRc9x/djY2I7xcAaao9mDDYZmbvpeUFhMmzZNNW5sWE7VLE94fg53sEHmFFn9/GyQKAB4bfoKl7RysGfM66RpnvF4fprNQ5lay8aRaaVfM++Rv6PA0c9xIijuOFvE1aiJEK/fV4LXznPzOPq1MO1DTQ8OIfA4PIZ+P7R88Fl09kHg8AUtVRRVU6ZM6RjWOR0o2mgR4fmZ/jw/r58Ch2nC73QaGhrU97p/Bz9zuIPbwffLdGSeTElJUdfIeAy0pjE/nc6CYoLQ14i4EAYEjvom1K7ejvhhebDmZ8JgOjbrs9JmRU8zc7BpuiewYeAx+PvuzNUUMOz9Mz57+wy9Ae+DDXXw+bnNwO/0xku/1uD75V82aKHcP3/LBi74ePq5u/t9VFysGhZxNbcpi5JR+y1/3xMTf2d4boZQrp+WJTbQFCRctZN/Txf9/rtKT36npxNhPBJ8v4zb1f3racqgo59DPw7hZ4bg++dvKHpOJ10F4VQRcSFEPlpl66xrQsP6XUgYWYDYvMzAF0dhT5zDAvRFqKioUP4TDGz0dT+F7mDlPmjQINVLpZMif8+hEloIOvcyaTL/+te/rnq3NG/T94JWBzYOpwobfJrLaU7nffDcDPzM87NXrVthdOsGr5PnZTxaM/bs2aN61n2JMcYCo9msVkj1OpzISE9XaUenQzb0vBYOJTDtQ20YaZmhhYbXr98PrVG0UPC+grniiivUMASfM2eo8LzBloVTgdYSCkYei8+b5+cx6ZTKZxy8CBnTnfdFp1taNRiX90rH0mARQfHGPMkhLA6jMR4Dh18oGoL9gRiXz1a/X+YjpiF9SzrnX+YTnudEzrKC0BuIuBAiHvaOnfXNaNlXgrjCXMRmpwW+OQor/Pnz5ysnRzb0ujWBY/PBMyVOBk35XNyJvWH6U7DxYqNOR0MeNxg2BhwSoTMkzd6cJcDpqxQGpwqPyfF5Ovux0eQwCAOdPDnOz2vTfTrYME2aNEldJ8UNr5N+C7xfNkh9CRtEkyYwouJjlR/M+NFj1X5OQ2XDyWvmzJF///vfIVsVKJxoCXr66aeVcyifHYXT3//+92P8HQiFCH1r7r33XjVE8tJLL2HDhg2Bb08NigAObXFqLn1ZeA8879/+9jclPEaMGBGICZXubPA55ZnXybTnrJ2XX35ZiQcdXufChQuVHw2dRfXnyXzCYbVgR2GKFwpGfkf/Dw4RUdg88sgjx70kj/EoaihadCuHIPQ2Ii6EiIdrKtir6hE3OAeWlES1rkJnON5N50Y6M9KxkzMWfvSjH6leYKhOlvQXoFMjHQrZaNC7nzNO2NiwoQiGDSx7mmzkb7zxRtXwU4SwsWcP9lSgf8GVV16pHArZK+a5GTgzgQ6d11xzTYc/BYcGrr32WiWq2Lh+85vfxO9+9zvV+6bY0RutvoLri5issXDb7Jg5bTrOO+88JY54DXSy5MwW3c8gFIYPH66cWPmXa3BwBsbvf/97ZTXgcYNh2vN5sJFnPDa0/A0dPE+1Nz969GiV9vRh4RopTHeuw8H0vvDCC49xCqbDMPMIhQLvlYFiiv4ZwX43FAw33XSTOjYFk/48dX8R5jVaIQiPz1kydFblyqUPPvigWmuDM2EoboLhbCjmz/vvv1/lAQpPQehtTPdfG7SI1kRZREuIPJp2HETTrkNaYxaNzIXTNYFxbGVLKAxYmeuNEQPN7JzBwQaLFTR7eRQbnLJIqwO3aXrXt9kQ0jGPjTyPw20ec8KECapxT09PV+fiMRifzoQUGIzDxo6mcvaA2QvncbqD52fDyIaKv2FDQ3HAczNwmw00z804bGj0xov3RxHBbX5mb5ZCh+KKPV3+Tp/hQhM8Z3HwPrra1uH1sOfNha04PHMyuEoqFzRLnT4G6cMKkJyZrkScnobs6dPRldfE+2Cjz/0czuD1cpv3qm/zfrnNY/Ce+Je/5X2z0eY2hwKYxmxcKSb5nDiMxX08Nq+ZQW+wTwbPz+fGe+X59PPzL/MS05PH5qwXXgOvRRcNfNa8Hl4375f5gtfI58G1SChymb7MG3wO+vH5l9tMFx6XaaRfK4/H3/MZ8Ny8Nh6DopX7+Rt91oyeP3k9zNe0dvG4gtCbGPY9e3uHXWzELU8GPglC5FDy/IeoW7sDyZNGqlU5ozO6X/1yIMBGlf4JbJjY2FAocfEs9rzZGP7yl78MxOx9Kt75DAf/9RaG3H4F0maNU7N4BhIcFqFIoyBhI09BxwW4uGInLS4UQILQnzFSWehBECIRW0kl7FUNSJ0xRo3zC37YwHGpaprSKTK4+BZ9Lig6Oq8N0dvw3SKmaAs8dodaOXWgwaEy+lxwqikD1yDhsBiHO2h1EIT+jmFvkOVipFguhEiCwwa1Tdj7yHNoP1KDaY9+FyZrzHHTUMONxx57TDU0J4PDAVwB9HTgbAK+s4KLT9GpkKKCpniu3ki/APpl9BVVy9bj8H/eR+Z507QwFdaC7MA3Zw9aD+hg293MEfrScKjjdKATLVczpfMvh1hoveBQDRfS4tBUKMNighDOiM+FELHwvRUtew+jaccB5TzIIRGD8eh6A+EKGxw2cDSZnyhwPJ0OiacLx/w5Ts/xfC6KxZ4zx+B1H5K+or2sGs27ixGdkYL4IX5H27MNfWE404Y+C12luR7oh3O6L/pimuu+JPSJoKWIfhT6Kq26f4Yg9FcMe5+9Lchy8VTgkyD0f7wuN468thKN2/YjJjcdI+69PvCNcLap/XwbSl9epqYG51wyR60/IghC5CBTUYXIhZaLA6VqNcj4wWff7C4chct/K5+Ldid8Hnk/hiBEGiIuhIjF5/Oi9cAR1ZBZB+cE9grhAF+5boy1wEuHTrcsTy0IkYaICyEiYW/Y0+aAvaIORq2HzGERIXzwzxaJVrNFuIKqIAiRhbFjHqrMRRUiCL63wl7TAI/2NyrBCkvq2XcYFI6ihkVizP5hkdN4n4ogCOGJWC6EiMTd2oaWvSXqPSLRaUnifR9m0A+mY50LsVwIQsQh4kKISPjOCltxBWIyU7pc7ls4uxjpcxFDceGEVxw6BSHiEHEhRCSedjvaSioQnZ4Mc5L/ZV1C+ECfC/rCeNvFciEIkYgmLsTpQog86MzZVlIFS3qSiIswRDl0BiwXIi4EIfIQy4UQkbiV5aJS+VuYk+ICe4VwwWAywWgxw+vgOhciLgQh0hBxIUQeXh88NjvaK+pgSUuGOVEsF+EGl2Gn9cKrCQsuhS0IQmQh4kKIOGi1cLe2aw2YEeYEK4zR5sA3QrigxIXJ6F+dUxODgiBEFiIuhIjD1WRTU1GjM1PUjASKDCHMMBjVc6G4EMuFIEQeUusKEYe7RRMXbQ7E5qSrcX0h/NCHRZS/hVguBCHiEHEhRBwcEvG0O9Q0VK4EKYQhFBe0XLhpuZB1LgQh0tDEBXsNehCE/o/bpokLuyYuMpJV71gIPwwGI4wmsVwIQqQilgsh4jjGcmGOCuwVwgn/sIj4XAhCpCLiQog4lOWC4kIsF+EL3/WiHDo90NRFYKcgCJGCiAsh4tAtFxblcyGWi7BETUX1D4v4ZFhEECIOERdCxMH3inDlR0tKolguwhT6XHCdC6/bK5YLQYhARFwIEYd606bLDXOiVTVgQvhxdBEtWi5ktoggRBpS8woRB4UFX4ZlssaoRkwIQzrEhVguBCESEXEhRBw+TVx43W5ExUZrOVyyeDhiMPjXuYBa/juwUxCEiEHrOmi9Bj0IQj+ADoCqx3sCvM6A5UITF7L0d5iiiwvtr5qKKvWPIEQUUvMK/Q6vywV3m//lZMeJDK2NotWC+/3iotOwCGcmSEMWHvDR8Ploz0NmjAhCZCHiQuh3uFva0VZSiaYdB9TMkGDoHOgfx9cyN98rwvUUgvA6XSe1eghnAxF8ghBpiLgQ+h2cBUKqV25C4+Z9cNQ2qm1CfwvSeQqqu6UNTdv3o2HLXtir6gN7hXDARxNGJwOTIAj9GxEXQr+DFglLcgJistNQ8eFa1H66tUNgdCwlHWSxcDW2omHzXhQ/8x5cmsiQtS/CEVEXghBJiLgQ+iVc2jvrgulo2nkQFe+tRv3anco60WFe51/tf0+bXVksyt9ehbLXVsCcEAdLaqI/jnD20Z6TgQ9KEISIQsSF0C+h9SImKxWZC6ageU8x9v3xeSUi3O0Ov7Cg74UWWvaV4NC/l6DkhY9gzc+COSlOXmYWRvi1oAyLCEKkoYkLlm49CEL/wRAVhZxL5iBhVAGadh7C9p8+jtpPt8BR2wRXsw2NW/eh6M8vofrjTTAnxiH74tmauEgI/FoQBEHoK8RyIfRbOM00rjAPqdPHIjYvA7WfbUXJcx+gcVsRbCWVKH7qHeWPQQdOvsQs87xpSmQI4YR0agQhEhFxIfRrjJYopM0ch6xFM9VaCUfe/ARNW4vQXlaNkhc/gr2mUcXhEErShOEwWaMDvxTCCxkXEYRIQsSF0O9JGj8UGfOnwJwc71+90+1Rqz9GWWPUOhicWRJfmKu2ZcVOQRCEvkdqWqHfw6mlCcMHYfjXrkVMThp8RgM8DifsVQ1KTCSNH4aUaaOlcxxu6K5efC7ybAQhohBxIUQEXPMib/F8WAfnwBQTrVbh5BLhXPcifkQ+kiYOD8QUwhHRFoIQWYi4ECKCqASrGh5JnTYGsTnpWmulNVdaoNDgFNS4IbmBmEJYofw5RVoIQqQh4kKIGAzmKAz98hVInzNBDYeo4ZKR+WomiSnGEoglhBf62IggCJGEsaNsS/kW+jkGgxFxQ/OQOLZQWSuMJiPSZo5F3ODsQAwhLAlYmQRBiBwMe5/6YoesGHnbfwKfeg++SMrjdMFjd8Kjr54oCH1I9cebUfbqClQvW4exP/kKMhZMQ2xOWuBbIVywFVfg85t+jLE/vB15Vy8I7BUEobcxRluU9dak/eXU/DMh5ntdXPBdDu7WNri04G5tV+97YOALo5yNLVoEERdC3+Ju5/tEDmgCYzmG3n0N4obkwGiSl5WFG/aaBux75DnkXXMe0maMC+wVBKG3oU8aFxCMSohV71eKio+BKS5W+6vt10JfvMyx18UF3+9Qt2YbaldvRf36PbBX1sPd5vRbLNSZRFwIfQ9ni3jdHvUeEa7kKYQf6hUwTheMWsVmMIn7lyD0GYGhR5YzS0o8ksYPQeq0sUidOR7p506COSm+19cA0sTFzUHi4rnAp57hrGtC084DqHj/czRu3Y/28lqtcnciJsuK6MwE7WasmkKK1hRTDCCLGAmCIAjCGcNtc8DdylEFBxw1rXBU2+Bp0zpf0bGIH5qDtHMmImPuZCRPGqGJDJOmDAI/PA1OT1xoXY/mvYdRt3obqlds1ARGEaISohBXkIL44ZmwDk7VBEaipopiYYo1IyrO4ldQgiAIgiCcETx2lyYm6Pfo0sRFC9qPNMJ2uB624jq0lTTAkpSCxLHDkT53kiYyJiE6I0W9efp0OGVxQXNmW1k1yl5bjsr3P0fr/mIkjstF9sXjkHneSPVZzNGCIAiCEH4462xo2nEEFe/vRP3aQ7BXtsKSlobCOxcjZdY4xAzKQFRsDIyc1s8hlUAIFdP910z4WeAz0iZdF/jUDT4f7LUN2Pvbp1DywlJ47a3Iv2Eqxv3sSmTMH4GY7CQRFoIgCIIQpnA0wZqfisz5I5E0IQ9ejwdVS7ej6qN1aHXY4UqMhS8+Wmvu/fYHCgsKjVA5JXHRUlSKspeXovSVFUgYkYL8m6Yh//ppiM1LhskiDnSCIAiCENbQEqG11YYoI6ISY5TQSBiZhTYOlRysgqOhBYasZCDG3OHOEGzF6I4eiwtHbSOqV25EyQsfaCdwIu/qSci5fIImMjL9Ht+iKwRBEASh32CKjoIlNQ7WvGQYLSa0HaqBTRMYLrsDxtxU+JTRwC8sKDB0kXEyejx1o3n3IdR8sgmtRYeRfckYZF80FgnDMwPfCoIgCILQ3zCaTYjJScLgW2Yh56IxMBvcaHjzM9Rv2Yemymq0tLSgra0NDocDbre7Y7jkRGjighH00A3awapXbkDDhh2IH5GJIV8+R5lRBEEQBEHo33CYxJIci4IvTMegaybDU9eMhnfXoHHXITQ3N6O1tbVDYHg8nsCvuiZky4XX4UTjtv1o2nYAJqsJedqJo1PjZfEbQRBOmw8++Bx33/1L1NU1BfYIgnBWMBiUBSN1+mBkzB0G395StOw8hMYjlWhqauqwYNjt9pNaMEJWBnw3SMPGnWgvr9FOnIisC8ZoIoPrVgQiCIJwSixduhZvvfVxYGtgUlpahY8/3qhVWA61vXXrPvzjH69rPaU2tS0IwpnDFGNG4uhs5F4+ASanC479R2A7WK6EBa0XNptNiQuXyxX4xfH0SFzUb9gJr6Md8YXpSByToxw/BEE4Pd54YwX+8593A1sCWbduB37/+6fR3GwL7BEE4UwSm5OErIUjYUmPh7eiDvYD5UpYBIsLp9MJr9fbpfWiR8MiDZsDK3AOTYfBJCYLQRAEQYhEjNFRiE5PQOzILETZ7PAcrlKiorP1QhcYnTHsfeoLHZJj5G3PBz4di8/tRsveEqxa/B0kT87CkC/NRu5VEwPfCoJwOtx3329QU9OAF1/8bWBP1zg0gb927Q6sWrUJu3cfUkMGyckJmDlzPM49dzImTRoZiOnHbncqCwCHGxi/vd2OlJRELe4k7Vgu7Vjb8ZvfPIicnPRAfIc6PuPv2VPcEX/u3MnaZwfWr9+F3/72QWRlpar4vJ5duw5i5coN2L59PxobW5CYGIeJE0finHMmadc17phFd3i8DRt2Y8WK9di7txhtbf7jz58/FTt3HsRbb63E8uWPIy8vE0888Rr+8Idn1HZubgbee+8zPP/8e7j99quwY8d+dd6GhmZERZlQWJin7n/BgmmwWmNCmoMvCEL3OBvbsPORFSh/YzNaUpPgu/N8WOPjkJiUpJXdFKSmpmp1ULJW7qwwm49dLjwky4XH6YazuVUNjfA9IeYUa+AbQRDOBC0tbapBffPNlSgpqURaWhKGD89HQkIcNm/ei48+WoPi4nK4XG4Vn8Jjz55DypfjyJFqZGSkYNiwfNX4b9q0B6+9tkyJAjbwhMenAGH88vKajvg8/saNu1X8jz/eoAQC4e8OHizDkiWrUFFRq+KPGFGgCZUMHD5cjk8/3ayuiyKG+I9frIaAKiv98YcNG6Qd36oJoJ2acNmh4p2I0tJKvPPOp3jllaXq+lJTE9X9FxTkKGH2+edb8cknmzrOJwjC6WMwmdS7wsyxZvi0DoantR1Oh0NZLNrb29Vf+l2c8rAIh0RcTTb4vF6Y4iyIoiOnIAhnjKqqOq3Hv0FZFMaNG4Z77/0CfvrTu3H33deqhpYOkJ9+uqVDLDA+G9t9+w4ri8YDD/jjf/Wr1yjBwAY6mKqq2o74kyeP0uLfrMW/C3fddQ3i4mK1+LWBmH6qq+uxZs12ZYEYP344vvGNG/D//t/XcP/9X8CoUUOUwKC1QRcjFCAUHIw/deoY7fhfxE9+cjfuvPMaxMSY1ffdwUqMgmbs2KHafVyLH//4q/jud29TVgsKDFo+dIdQQRBOH7o/xGbEIUoTF9A6Lr6WdridLjUUwumourjoaljEyLUrOsIJ8DrdcNGxyutTwkLNEhEE4YzBnvvSpWuwePECXHbZ3A6rBYXGDTdciNGjC/HmmyvQ0uJ3gDx8uALLlq3FNdecj0suOQeFhX4rARtmxr/oonNUPJ1Dh8qxfPk6XH/9okD8PHV8xr/xxotw4YWzAzH97N9fqqwlt9xyGS6++BwMHpyjhiQ4xMJjUHB88snR2R8HDpQqy4d+rCFDcpUVZfz4Ydq+i7Fw4QwV72SkpibjwQe/iMsvn6uuz2qN1fYl4cor52vXWaiGS3TLjSAIpw+XmohNj1fiwuD2wtDmUO8g4RRUCgyGE4uLUKDw8Gg/pv7geKaMaQrCGaW1tV317jn0kJmZAiPfCaCVQ/o0sGHnPgoKvXHlMASHQyhC0tOTj4lfUJCt/SZbxdNhfFonhg8vQFrasfF5fP4mmKamVjVc8qtfPYHbbvtvrYF/EFdc8YAWHsStt/4Yf/3rS6isrIOH9YYGRQ+3adXgkE7w8SkUOl9PV1gsUWooJSkpIfB7VkUGTaTEq/He5ua2Ls2zgiCcGmzp9WW/qQN8Xn+gmOAiWhQZDKchLvy6QofnEQThzOF2e5RTJXv70dHHWg45bBETY4HNZtcKub+kssC3ab0MWiu6is8QDONzCCMxkfGPdczqKj6dOW22dowePQQTJ47AhAn+MHHicDXsQevKbbddjvh4v38WRY9+/RbLscePj49VVojuMGm9KFpTzOaowB4/dOqkSOE9iLgQhF5Gb+9ZtALFi+UsWGCc1lRUQRDOHmxY2SjTp6Kz6Z9DD06nG7Gx0f4ehobJZFKiouv4ThWC6S4+xUQwtBxwpsett16ufB8eeuj+QHgAv/nNA+rvd75zO5KS4lV8Hp/XT0FCoRQMRUfn6zkR+v0JgnCG0Yqe34DhO0ZcMIi4EIR+Ci0H2dlpOHCg7Lglsrm6ZW1tAwYNytR69f6F7WgNyMlJw8GDR1Bf36z26XC4hL8JhhYG/fic4hlMWVnVcfE5FMEpolu27EN1dUNg74mhBYVTWIuKSo87fklJhXaOysCWIAiRgIgLQegHDBqUhfPPn4klSz5R7+E4dOhIx3TT119fjr17D+PKKxeoYQPCKZqMz6mldLykPwbjMx6nlXLJ8WDoV3HeedO1Y61Q3x2NX4xXX12GZcvWBWL64TTViy6ag3ffXaUcSSkyuJomfTF4Dk4Zffjhp9Q2GTp0EObOnaLt/0gdi8dnfE6vffnlpWparCAIkYPp/qvH/yzwGWmTrw98OhZ3aztsxRWofH8NkqfkIWVyPqLT/eZOQRBOj3ff/VStPdHc3IrPPttyXKDVIj8/WwkHTsWkYyTXpFi/fqdalIrTQukUST8Hrh/BIQg6OMbFWdWsjoqKGtWIb9iwCxs37lKWhqamFuXEefvtV6rhDfox+OOXKMfRo/F3q2mejY1cka8dd9xxlVq4i34ZvB79O/6O97Bhw07s3Llfu8Z6NUwzdepo5Q/CIRH6VXDWCI+/c+eBjuPTksFj0OeD1+Nfi2M3Vq/eprZ5HsZbs4bbVykrSGd4LC4Yxvi6n4cgCKeHz+OFvbIZNR8XoaXZAe+YPCDJCpNWnlnHxMTEaPVGnFZmE7U6ITrwKz/Go14ax4+ZCILQ93BaZlxcjFogq6vAxbHou8D1KhYvXqiGJLZu3assDLRcjBw5WE0f5UwS3VmSDTSdKxcvPk+Jk82b96j4FCU83/TpY9XUUd2HgcenYyaPz/0UCvrxKVymTRtzTHw2+BMmDMeXv7wYQ4fmKUsEV95cuXKjGlrhjBBOOaXAIDw+419zzQVKbPD4nPqqr8Nx1VXz1V/9+jMzU7vYHqVtH+vMqcMhF64M2nmVQEEQzg6GvU/e2KEqRt7+YuDTsdgr6lClVRpbvvkIhnxlJgpvn4OEUVmBbwVBOB3oQKlP2ewK+lHQGkEYj45UDPShYlvPmRJ0+OTfznQVn0Lg7bc/UUMsTz/9S2UV0WF8Bp/vaPziYsb/GO+996kW/1dqeW4dzk7xeunU5XfyYnwKEDp8Go2cxeEXIzr+4/sdwPTj8950BzGKCf7e74XO7agutzvT3feCIPQcr8ONhi2l2PWLd3CktAnua2bCV5AOS7xV62xYtU5Dkib8M7U6IU9ZL4IRnwtBOMtwSIK9+RMFXVgQigjG58wOfse/3O5KWNBn4t//flOtjMn3frABLiurVn4YHJbguzhiY2MCsf1rUfzrX2/g88+3qGEKPT6tJxwmmT+f8TuZPjXxEBXF66GJ1H89FAjc11lYEH3WS/D1cyqpfk+6MOA985gn2u5Md98LgnBmEXEhCBEKrQoUGBQX//rXm/i//3sezzyzRPlt0IGTQynB61fo8fliNIoMPT6dRzmUwvihrEchCIIg4kIQIhRaCKZMGa2GC+j8yeXAd+06oAmLXDXTY9asCcdYItjzZ3yXyxOIv05ZLAoL/fH59lVaGwRBELpDfC4EIYLpDR+Nk8UXBCFyEZ8LQRC6pCc+GqSn8QVBELpCagxBEARBEHoVo39KmD8IgiAIgiCcLmK5EARBEAShVzHs+fcNHSaLUXe8FPh0LG1l1aj6aB22fv9R5F45FrlXTULckLTAt4IgCIIgRBpepxste6tw4LFPUF1vh/uq6fANywrJoTMkcdG6vwxH3vwEux56EtZBiUgYmQlzksx3FwRBEIRIxefxwVHXisbNpWiNiYbnkknwji+AJTGud8RF857DKHtlOfY+8hwMRi/MybEwRne9xr8gCIIgCBGAF/DYXXDUtMCZlQzPognwTimEJSm+d8RFW2kVKj9Yg20/+huyLhiG7AvHIjY/JfCtIAiCIAiRhs/lQeuBGhQ/uxa1LS64r5wG3/AcWBJ6aVikvbwWVcs3YMu3/4jBX5yKgi/MQPyIoy8vEgRBEAQhsuAiWk07jmDP7z5ERXkr3FfPgG9IRqg+F9cHiYuXA5+OpXdW6OTEFL4OmS9hYuA2XzKkB0EQBEEQTg826XzLsh48WnAFPnc09yFxOit09rG4oGigbwYDhQXfwMg3FwaLDBEXgiAIgtA7HBUVPp9b+0thYdeCUwvcZmCz373QCFNx4RcWBgN9M3hSqxaCl9UQQSEIgiAIfYfevPOvQwutmuCo1/5SbFCAnJwwfLdIjCYq0rVQoH3mehgUFsFWChEWgiAIgtC36O0tm3q+ATlJa5cHaSFb+5wQ+K5v6GVxwQuN1y6c1opU9dk/FEJhIQiCIAjC2YHNvUULcVpIDrTTSVqg20Lvi4xeFBc8VKx2wcnaX15052EQQRAEQRDOProVgyMLFBu9bwDoxdaf/hWcnkpxwQsXBEEQBCE8ocWCIw30n6TA6F3rRS+JC1osdAUkK3cKgiAIQvhDCUAfSRoF6IPRe/SCuKCY4BAIL45TTPvOQUQQBEEQhN6EQyK0YFBc9F4b3gviIlq7KFos6LgpwkIQBEEQ+he6oydD7wxonPZR/GqHs0IEQRAEQeif0FDAWZ69JS58PnSEHkErBdWOf9VNQRAEQRD6KxweYXvOCRmnP3vkNCQKxUWsFigsekfpCIIgCIJwNmCbzlmfbNdPf2LGaagCo3YRdOSU2SEDCafTiYaGBpSVleHAgQPYt2+fCvzMffX19XA4uMysIAiC0L+gwOiddv00LRc0oYi4GEjU1NRg9erVePbZZ/HII4/g17/+tQp//OMf8cwzz6jvqqqq4OvxMJsgCIJwdtHb9dMfFjHs+dd1Ha3AqC+/Evh0LF2/uCwf/neH6O8NESKV6upqbNmyBe+88w727t2rxENrayvsdjvcbreWDwwwmUyIiYlBfHw8srKyMHbsWFx00UWYMWMGUlNTVRxBEAQhnKEccGqdw3Ltb+PZfHEZRYU0GpEKrQ+bNm3C888/j8ceewyvv/46Vq5cqYTG/v371TBIZWUlKioq1Gfu43eM89prr+Hxxx/H008/rY4hQyWCIAjhDtvz3mnXRVwIXdLW1qasFK+88gr++c9/KrFQWloakkhgnMOHD+ONN97A3/72N3WMrVu3oqWlBe3t7cpvgxYPr7f7V/4KgiAIZxK266c/SeM0fS70IEQaJSUleOihh/Dkk09ix44dgb09g5YPWjNo9fjlL3+pjkMLR11dnRpWcblcIjAEQRDCit5p0zVxwTEWPQgClAigteHDDz9UQuB0nDP5W1osaLl49NFHsXv3bnVMzjhpbm6GzWbr8N0QBEEQIoPTt30IEQWHQ9avX48lS5YofwoOYZwuFA50Cv3444+xceNGNWRCYUHRwfNxGEXEhSAIQuQg4kI4hkOHDmHt2rXKCbM3oYCg4yePXVRU1CEudMuFDJEIgiBEDiIuhGNYtmwZNm/erBr73obiYcOGDdizZ48SFyIwBEEQIhMRF0IH9I/Ytm2bGrboKygoysvLceTIkeMEhj6TRASGIAhC/0bEhaCg1YCrb1JY0Nmyr+B5amtrlbigvwVnjTAEiwuPxxOILQiCIPRHRFwICvpEsMFvbGzsFSfOk0FrBYUMz0lBQZHBIJYLQRCEyOA0XrkuRBK65aIvfC06QwFBMUELhS4wGMTvQhAEITIQy4WgYEOvN/h9Dc/Bqaf08aCQ4GcKDl1cyLCIIAhC/0bEhaAwGo3qxWP829dERUXBbDarzxQXFBMUFbRiiOVCEASh/yPiQlCwsU9PT4fFYgns6Tuio6MRFxenPtN6oVsyKCxEXAiCIPR/RFwICjb4+fn5ynrR1/BVvXw9r/4adl1g6IHbgiAIQv9FxIWgoOUiJSUFhYWFyoLRV1BQ8Ph5eXmBPYIgCEKkIeJCULDR55DI5MmTMWTIkMDe3kUXFllZWcpyIQiCIEQmIi6EY5g9ezbGjh2rhkl6G4qLESNGIDc3t8OhUxAEQYg8NHHB8W09CAOdmTNnYvr06cq60JtQWHCWyLRp0/rMMiIIgiCEB2K5EI7BZDJhwYIFuO2229QwCUVBb5CamooLL7xQCYvY2FjltKk7bvIcPK8eeuucgiAIwtlBxIVwDGzYhw4dikWLFqmQkZFx2mtf0M9iwoQJOOecc5CWlqaOp083DRYWHCphOBNrbQiCIAh9h9TiwnHEx8dj1KhRuPHGGzF16lQ1RNJTHwmKBg6DUJxQWMyaNQvDhw9XU10pLHRxQSGhCwv6eYi4EARB6P9ILS50SUJCgvKP4PDIwoUL1TTVnkCBwPUszjvvPFx22WWYMmWK2s+hEAoL/qUAYTyKEA7B6OKCYkMQBEHov4i4ELqEjT59I7iw1qWXXoq7774bV155pZpJkpycfELrAr8bN24crrjiCtx3332YN28eMjMz1XcUFVyJUxcXFBEUFLRmUIjwfGK5EARB6P9ILS50iS4uKBbohEnLw/z585UfxiWXXIKLL74YC89biKuSh+OywolqPwUFAx036V9BIcJhEVol9CW+9eEQXVjwHFwKnH8pMhhXxIUgCEL/Rl65LnQJG3+94acPBp0yR48ejXPPPVeJC1oxLrvsUlyXOgqLR0zD5ZdfjsWLF6vv6F9RUFCgjkELhb6st26xoHigsKC1gsfXA88n4kIQBKH/I7W40CVs4Nn4U1jQ/4IrajLowxfcR6sEhzGscVZl4eBnWif4dtPgoL9GPXgohMfhMZKSktRxeR7uo7hgHEEQBKH/IuJC6BKKC4oFDlXQqhAsMCgEOqwMdMoMOGbSQbNz4H6KBR6L8fk7XbBQWPAvj8/ziL+FIAhCZCA1uXBCdIGhD48ECwx+pqXBqAkHk8k/24OzPjoH7tedNvVj6McRYSEIghCZSG0unBQKBIoDigAKAlobOATCkJSUjKiAVYJC40SBlorjf+u3WvB7Hp/nEQRBECIDERfCSWGjr1sdKBAoDLiUN1fazEhPV8KC3+u+E50D93ONDManUyj/8vc8Dr/XLRciLgRBECIHERdCSAQPkdASoYsGigIKBK5lcaJAx0+KCsbn73SfDRkKEQRBiEykZhdC5jiBkZykxAU/Z2dnIycn57jA/bq4oLVChIUgCELkI7W70CP0mR8cyqC/BB06+Vkf+ugcgq0VjM+4/L1MNxUEQYhcRFwIgiAIgtCriLgQBEEQBKFXEXEhCIIgCEKvookLvlNED4IgCIIgCKeHWC4EQRAEQehVRFwIgiAIgtCriLgQBEEQBKFXEXEhCIIgCEKvIuJCEARBEIReRcSFIAiCIAi9ihE+HzqCIAiCIAjCaSKWC0EQBEEQehURF4IgCIIg9CoiLgRBEARB6FVEXAiCIAiC0KuIuBAEQRAEoVcRcSEIgiAIQq9i9OHof4IgCIIgCKeLWC4EQRAEQehVRFwIgiAIgtCriLgQBEEQBKFXEXEhCIIgCEKvIuJCEARBEIReRcSFIAiCIAi9iogLQRAEQRB6FXnlutAtrqZW2KvqA1uh4bE70VZSCa/DGdgjCIIgDBTEciF0i72yDk07D8BWXKFEQ3c4G1vQur8UjVuL4LbZA3sFQRCEgYKIC6FbvE432suqUb7kU7QWlcLd2h745nhczTY0bt6H2k+3asKiHT6PJ/CNIAiCMFAQcSF0S/ywPESnJWPnz/+B0leWofVAWZfDaD6vDy27DuHwM++h/O1VyFo0A+bkhMC3giAIwkBBxIXQLcZoC2IHZSJ93mRUvPs5ip9+F/Ubdge+9UOLRcO6ndjz+/+gRRMfSZNHwpyUAGOUKRBDEARBGCiIuBC6xWAyIiYrFXlXzlM+FBXvrcbh5z7w+1S0tsNZ34z6tTux79GXUfPpVlhSk5AxdxKM5ijtx4bAUQRBEISBgogLISQ4vJF5/nRY87PQVlqFI2+tQumLH8FR04Dm3YdQ9upylLzwETztdiSNG4qUaWMCvxQEQRAGGpq44Ni5HgSha0wxFsQVZCFlykjEFeZooqIee373rBIaVcvW48C/3oLP50P88HwkjCpATGZK4JeCIAjCQEMsF0LoGAzIPG8qkieNgNFsVg6cxOf1Km0aFReDnEvnIHnCMLVfEARBGJiIuBB6BIUFrRMmTUjQmmEwGpSwoF+GOSkOqdPHIG5ITiC2IAiCMBARcSH0iJicdCQMH6QJiFyYE6yaqDBpAkMTFolxSBw7FPHDBsn0U0EQhAGOiAuhx9BhM/uCGYhKSoAhygSjxazExpBbLkG0+FoIgiAMeERcCD0mbmgekiePgKfNv1Inh0YsKYnIOn86LGK1EARBGPAYdj9+Wcc0kdF3vRP4dCz2ijpUrdyILd98BEO+MhOFt89RMwIMhuHatxZ/pEjD64PX6VLv0nC32+EN4Z0aAwU6cnL66Z6Hn0HTzoNqeCRr0UyM+cFtmlw1ydIWOlpCmKwxMMVGwxRtVhYeQRCEcMfnK9H+rYPX4UbDllLs+sU7OFLaBPc1M+ErSIcl3gqr1YqkpCRkZmYiLy8PiYmJ/h8HEHERwOf2qFUm+dItV2Or9rkVbm3b1dqu9nvkBVzH4GxoVqt0MlhSE5E6bTRSp48NfCsojAaYk+IRFR8Ls1YYzYlWRCXGaX/jYU6Oh0X7TpSYIAjhhoiL3sDnU+szuJpsapXJms+2om7NdjRt3w9HXTPAaZbSAJwYvmNE0ufkaGlkjLEgOj1JE2FjkDpjHNLmTEDarHHKmqFm3EgaCoIQJoi46AVa95ehZtVmVH64Fs27DsFjt2u9zWjEDkpEbG6y1tOMhjkhBlFx0YFfCMG0lzfBZDXDkmwN7BF0/KK1He5WB5wNbVo5akJ7aTM8Dp+yXvCFcFkXzkLGvMmIH5qnpvMKgiCcbURcnAauFhsaNuxB5Udr0bBxFxy1dbAOTkLiqCzEFaZrwiIJlvR4mGLMMMWaYYyW8fLj0RrPhnat922CScTX8WjiwtPu1ASrWxMYdjjrbEqM2Q7VovVADdpKmmBJSUPylFHInD9FvRjOnBAnIkMQhLOKiItThO/DaNi8DyXPf6j93aX1vIHUGUOQffFYpEwdjJjMBC1lApEFoZdpK9Xy36YSVK/Yqwnbw3A1u7XyNAwFNy1C8rQxajqvWqDMYIDRKEJDEIQzS2+ICyN7Vx1hAODzeFC7egf2/PYZlLzwIaz5cRj1rQsw6ffXI+fS8YjJEmEh9C3W/BTkLZ6ESQ9fiwm/WozEsZma0FiPTd/8XxS/8wnqi8vQ3tYOl8ulFcuBUS4FQYgsBly3qGrpevUGT9vhUgz58hyMeOB8ZJw3CkaTKArhzGI0m5A8OR+jvr0II7+5EFFxUSj951sofWMlavYdQnNzM1pbW2G32+F2uwO/EgRBCH8GjLjgmhW2Q+Uof+cztBQdRPKkHBTcNB0p0wYjOl2mBApnAS3PmZNikTQ+F7lXTMTgW2cCjnbUagK48oM1aKypRUtzC9ra2uB0OuHxeMSSIQhCv2DAiAt3SxuqV25E/bodWg/RgEHXTUXarEJYUmSWg3B2odNw4phsDLl1FjIWjICnqgZ1msCo216Epro6Zb2gwHA4HPB6vSIwBEEIewaGuNAqY0ddE4qfeReulmakzx2OQTdMgzE6KhDhzKOmKbrcHQ1F5+0zCRsst9sT2Doz8D55XvbGvYFXt0cKR+/LG9jTPUZLFKyDUjDqwfOROjkP9v1HUPPGKjSUVXYMj7S3tysLRk+OKwiCcDYYEOLCXlWPhg270bKnBKkz8pE2p/Cs+1js2VOMSy+9D2vWbFfbu3cfwiWX3Iu1a3eo7TPJ008vwbe+9bszKmwqK2vxzDPv4Je/fAIrV24I7I0M3n77Yzz00L/w6qvL0NjYEtjbPQYtT1oLUpX4TRySAsfavWjeexiNVTVKYLS0tMBmsykLhvhgCIIQzgwIcdFeUYuGzXvh0SrllCn5SBqXG7KPxX/+8y7++7//csJAkXAqtLS0acJim9b4NHe5fSYpLa3Cjh0HAlt9j8fjRVlZtdb4LoXFYkZycnxgvwePPfYqfve7p/DOO6tOKHY++GC1JojeDmyFH6mpSZoAcOH111egrq4pdEuDlie5pkr6nKFInzEYnpom2HYWo6W0Ek1NTR0WDPHBEAQh3NHEBSsnPUQmdk1cNO3cj5iMOCSMzEJsdlLgm+55+eWlSmCsX7+zy9CTnmm4MnRoHqafwfeCNDe3oqSkAvv3l6rzjhgxWO2n6KBooMD48MPVSoA4nS71XTArVqzHCy98GNgKP8aPH4HRowuxd2+xEm62Hr6XJlHLoxTBJqsF7j2laNPSgVaLYOsFZ5BwqqogCEI4MjCGRSrr0Lq/BEkTcmFJi9PuumdDItdcc77WW/5rl2H27AmBWH7oP0D/BfpPsGHkX26f6jj5iY93rBjkdlc+G2ywO5+b+3gMPe4XvnAJHnrofrVoE+H3PFZP7oXH4n5/3KPx9XMFm/GLi8tx6FC51ggPx+DBOUhIONap1m/JMODddz9FfX1olhyeX7/uzuc/Pk3898TrDf3+jvqmBMfvynqQkpKAwsJcFXbvPoiKiprAN6FBURGTkwzrsAwYy2rhrGpQ1gqKCt1yoYuLzucWBEEIByJeXHjsDriaWtVr0+O1HiHfE9KXrFu3A7///dO46abv4+KL78ENN3wXv/rVE/j00y2qIeopa9dux8MPP4kbb/weLrroG+p4//M//8Tnn2/RGjt/w8KeMYdUbrjhe9i6dZ/ap/Pcc+/h4483Brb8jfDLL3+I733vj6iurleNJH0uvvnN33c0VLQe3Hnnz7VzbMUvf/k4br31x1i8+Ju49tpv44c//D8sXbpWO2e7iqtD8/9bb32CBx/8Ha6++pu44ooHcPvtP8Hzz7+Hn/zkr/jOdx4JxARKSiq1BrcW8+dPRWKif0gkmFmzJmDatDF46aUPcfhwBRyO7l93z3t5440VeOCBhzvOf8cdP1X3cvBgWSCWn7/97WXcc8//4JNPNuGnP/0rbrnlR+r+mLb//d+Pqv1tbcdaG+rrm7BixQZ8//t/wvXXfwdXXfWgOv5f/vISdu06eJwgychIwcyZ41FUVKLutadEp8YhbeIgmBwueFvb4dTyry4uGPhZHDwFQQhXIl5cuLVGkK9NZ9czJisRxpi+eUeIXRMx9L9gb5uN2ciRg7Fw4XSMGTMUVVV1WsO7Ejt3HtQahrbAL05Oe7tDOXnS94A9/VGjhuD882dqxytEeXmNdryPVa+YjXxUlEn1qHftOqDM8DwHt9nrX758HTZt2tPRWNbWNuLAgTItXiViYqJhMhlRVlalXdtRnwsewz/08L46zoQJwzUhME1r9MerIY3PPtuiiaXNgdj+Y27YsEsTLR/BbI7C1KljcM45k5Cfn60a6vfe+1Tduw7To66uEZMmjUJcXGxg71GystLUfQ4alIWNG3dh//5jxUFnqqrqNXG1QzlQ0oeD558zZyJyctKxcuVGdQ28R53i4gosW7ZOxefy2hMnjlRCh7+jSFq1alOHoy1paGjGli171TOMjY3WhM9YzJs3VT0TPnMeP/j+SHJyAsaNG6bSmffaU6LiLIgvSIEJPvjaHPBoz4+OnBQUFBa69ULEhSAI4UjkiwtNWHi0ypkvgzInx6qXbPUU9p4/+mhNl6GmpkHFaW62qQaLwoKm/jvuuArf/vZt+MpXrlbj7+yt83s2xKFAXw5aCA4dOoLCwjx8+cs83pfU8ShceE38no1hdLQZKSmJyMvLVD14XhPFCXvN7FXv23dY9Z5pmODx+B0b3oSEOE1cdJ0eNPmzUaQVgffywAM34xvfuEHrjU9Q4oaiRYf3TAtLU1MLLrhgporH+DfffIk6fivFXRC8N6YX7ysm5vh301AgMA2vumqBEj07dhQdZykJhvfnP38rFi2apc5/331fwI03XqzEE605mzfvDcT2Q4sNhdLcuVO0NF2M+++/GXfdda2ymHDIhgJDh74hmzfvUU63558/A1/72vXq/m699XIUFGRrAuOQshwFQ9HEe+Cz4L32FFNMlPIRYr41OFzwtTs1oefuEBgM+tCIiAtBEMKNyB8WYa9Pa0yVuEjUxIXWs+4p7LFeeeWDXQYOgxD2bt94Y7nq/V599UJNUAxRDcyIEfm4/PJ5WqM0Sx0n1PF3muFfe20ZZswYpx3vPNVL9h+vAFdcMR8LFkxX31dW1qn48fFWTJ8+TvXijxzh1MVWNazBBpHCgiIDWi+YPW02Rry+k02YYaP5/e9/WTWmtCDw3GlpybjuuguQm5uBvXsPB2IC27fv1xrgEtxzz02qsabI4YyJSZNG4ktfuvw4Z1GKG1p6UlMTldWlKziswHRjXJ6L1oYTsX17kbIQ3HPPDZg3z39+/n7atNG4/fYrlS9JsFggw4fn4zvfuU1ZLHg/TL/s7DTcdNPFymeCgkKHVhk6oFK00GrB76OjLep3t956mfpMy0Yw/lkwCcqKxHvtKVz3wpzsFxdGlxdGp99HhGJCFxj8K+JCEIRwJOLFhc/rO+r0FuL0085cf/0iraf+eJeB5n/CnjCHE9hAsdEJJjMzBUOG5KjZD22a2AkFTmWktSMnJ0OFYLKyUrXGP0t9rzdc8fGxqtddXV2nBAx7yxQXI0cWKGHAIRQmA3vZ9NUYNapQ/e5EcMhk2LBBahggGDbCbKyDfRJoiaCImTBhmHauoz4tjMdjZGamBvb4CcUJkb/lEMtNN12kpYVTCTc2ol39tKGhRaUDh2+s1qPn55AHrTxRUVHKohMM04SWEwoDHZ6T1hyeI/j+aH14//3P8fWv/0oTPPfhggu+psKiRV/TxNZ38MILH6hrCMaf1QzqmPzbY7TfGQKOxwbesxaYbkwDWjB0kSHiQhCEcCTixYWqlXVOTVuoxp0ioqvA4QjCBpu9bJr5O5v6LRaL1uhFqwYw1IaA8fTjBTeAhMMgsbEx2vG41oH/eBQXkyePUsMkFDkc0tixY78a1qDgoahobbWpYREOFdAC4m/4uoZxKCQ6D5volgb6YuiwgeN2V8MsVmusut5geD9ms1kTJLaO6+8Ko9a4TpkyWg3hUBysW7cTNtvxPit6A0vn0M6vKKeI4HEo/oLhdfI73mcw+v0FX1d7u13FvfTSubjssnnKoqIHWqloMbnhhkWB2H5cLo+yWlCkUST1FPVk9Oej/dGfVWeBIeJCEIRwZMC9cr2vYKPGXjsFQWfrBEUF/Q7Y0J7Ix6EzbPTYoPF4bNyCoahoa2tX30dF+RvH6OhoNfWRjQ+HCOiHwN43BcegQZmorKzHtm1FqodNEcAGuztOJj6C4RAAG1BaMIJFB7OUf1jg2NkeiYlxSgzRknOymSA8P60enLKanp6MN99cqYZ9Os+64fmZrhya6vwdBQzThI18Z0K9P1o+aOXglN1vfetW/OAHX1bhhz/8igo/+MFX1HTlYPjMuAoph1B4r6eDIfAf4b3oAoP3SpHBbUEQhHBiAFguzgzsnQ8enKv8G44cqe6o8PmXsyM444NDGbRghAJ79xxKofMkfSiCj8dz0KGTDoO0YBD2zvkbCgnOjOD007FjhyI7Ox25uZla42/CU0+9rSwhHLY5ld70iaB/BQXD1q1FSkzwGhnYABYVlSpBEEx6eoqy+NCy0nnKZ1fQ74QWDC6rzXSk4AqG5+fwDR03KeL081Po0GJD51TOQDlV+Fsef/Vq+rD4xYr2f+Ae/ecJFlWEzqVcRItprVu3ThVqIH/wCwymqy4uGMRyIQhCuCHiopdgA3Lttedj06bdeP315WoaKWc4cMbGkiWr1MyOq68+XzX0oZCWloTrr79QOYxy/QY6YtJasW9fidbIfqLex0FfEA55BDNy5BDV+NLJkg6eSUlxqoHLykrHu+9+phrizj4hpwstCxxmefTRF7Bq1WYlhjgNlo0915nYsGFnIKaf/PwsJXroZBnKTAo27MOHF2jpewE++WTjcc6TdBwtKMjBX//6kpoiS3HHWTkbN+7Gk0/6lwmn4+apwvUqhg3Lx7///ZZKe4oGOsz673Ev/v73V7TzvBWI7Yfn5zAOr5v3KgiCMJAQcdFLcKhh4cIZylrAxu3xx1/Fz3/+mFqwiQKDszO47gVFQygkJcWrmRo8Hoc5HnvsFfzsZ49pDdlLOHiwVK0Dwe8pFoLhrBIKHfbWZ84cp/wQKGg4O4J+Cxw64WyK3oTLh8+ePVHNKlm6dA0eeeQZ/Pa3/1bCgsM7vJ5g34YhQ3KVVYbig2nVnfWCQ04URFdcMU/NjuFwQzC8N65rwThcNvyRR55V53/uuXeVRYmOrhQgpwqPv2DBNGVB4dDSP/7xunoxGRdLe+WVZUpIcGaIDq03fGYUIXxOvS3mBEEQwh0RF90wZcoo1WB3B4cb2AhdfPE5auEsOlZy+qfeoHP66KhRg5WfBKF44JoMHCIgXPI6eJs+ArQGXHLJOUqY0EGTx+PMhaFDBylnQr6TI3h2BGFDz4b2vPOmY+LEEcopMysrBdOnj8GFF85W1ozO1g7O6GDDqdN5uzPsxQd/T4HDYYvrr79AWRk4i4VTOdnIcmou1/kInnVCPwoKDPpJcB0LCgxCEUErAf0bOsNhF/qPMA251gYFgw6nnXK6Ky0bfA50aD140L+eBxceO/fcycc08DzG1KmjA1vHw+fN567DKbMzZozFbbddoXxV+Gzp08L1PehPM27c0GOm23KdDApK3jOf1ekOiwiCIPQ3DLv/frEv8Bmjv/Z+4NOx2CvqULVyI7Z88xEM+cpMFN4+BwmjONtguPbt8YsghRNNOw/iwONvoPztZZj8xxuRPnsoojOOX3JaOD3of8DxfwoEv2+AQdvnVcMzzz77jnL2fOKJn/oja9B34sUXP1TiYvHiBbjuumNnW/RnaNngolqTJ49WU2kpfnqKo7oFNZ8dwJZvvYT2CYXwLBgLZ2aCSlvOtImLi9MEapIm1DI14ZSrPguCIPQGPl+J9m8dvA43GraUYtcv3sGR0ia4r5kJX0E6LFqn1Wq1dtRBeXl5Wgfw2E6UWC6EXoEOphwqoI8Ihwn46nguiU0/Bc7i6GwJoQWAC1D95Cd34bzzZgT2RgZXXjlfzSDhgmPBwyWCIAgDBU1c0HChB0E4NfSZE3y3yp/+9Bwefvgp5XPBKZkcGuHKmcFwZgt9Pzj0E6ofSn+Bs0s4REYB1ZuzcgRBEPoLYrkQeoWkpATMmTNJCQwOeXA5cE7HpA8FHU/pdyEIgiAMDERcCL0CnR4vumg2fvWre/Hss7/Gyy//Do8//hPceaf/xW2hLlglCIIg9H9EXAiCIAiC0KuIuBAEQRAEoVcRcSEIgiAIQq8S+eIieCKM1//OCfUadgkSwjxomTWQcQVBEPoXht1/v6ijBhv9tQ8Cn46lPy+i1bBpLw4+8QaOvL0co759EZIm5MGScnpvqRSEvsZZ34bGrWXY+4eP4Jg81L+IVk6SLKIlCEKf0xuLaBl2/+3Co+Li6x8GPh1LfxYX1Ss34eA/38KRN5YjZWoBotPjYYyWtQeE8MZjd8NR24rGTYfhmT4Cnvlj4ByWKeJCEIQ+R8RFCFR9tB4H//UWyl5fjriCVETFR8NgNgW+FYTwxOfywN3qgO1wPXyzNHExTxMXI7NFXAiC0OeIuAiBhk17cOCJN1H+5jKMuH8hEsflwpIswyJCeONsaEPT9iMoenTl0WGR3GQRF4Ig9DkiLkKgafsB/4vLlizDxIeuQerMIbCkyYvLhPCGQyJ1aw5i+w9fR/uEgLjIkheXCYLQ94i4CAF5K6rQH5G3ogqCcLboDXEh61wIgiAIgtCriLgQBEEQBKFXEXEhCIIgCEKvIuJCEARBEIReRcSFIAiCIAi9iogLQRAEQRB6FU1ccCaqHgRBEARBEE4PsVwIgiAIgtCriLgQBEEQBKFXEXEhCIIgCEKvEvHigsslMyi84lci9A98zKper3+D+VfPw4IgCP2AiBcXxhgLjNFm+DRh4bY54XV7At8IQvji0/Kpq8Wh8i3MJsASFfhGEAQh/Il4cREVFwtTbDR8Hi9cTW3wuURcCOGPx+GGs8Gm8i00gYzY8H5BoCAIQjBGn88HPUQiUfFWRFljlYnZ2dAGr9Md+EYQwheP3QV7TavfchFj9gdBEIR+QsRbLkxaj8+cFAdjTDRsB2vgbnUEvhGE8MXZ2IbGnRXwRmuiwhqtZWTxvRYEof8Q+Q6dRiOiM5JgzctA885KuLRKWxDCGa/LA0d1C5p3V8Cj5V0kWcWhUxCEfsWA6A7FZKUifsRg2Irr0F7eJNYLIaxx1LTCdrAW9spm+AoygJT4wDeCIAj9gwEiLtKRNG4E3G0uNO+pRFtpfeAbQQgzfEDTjiNo2FQCn1ErnkOzNHERF/hSEAShfzAgxEVsbjrSZo5DbE4q6tYWo37D4cA3ghBG+HzKqlazaj9qNpUCI7KBvDS/z4UgCEI/YkCIC05FteZnIuv8GXDWOdCw/jBaD9b6p/kJQpjA6aeVH+1C/bpi2LWiaZg1Eki2ijOnIAj9joFRaxkMMKckIveq+bCkpKBpZwWqPtoNV4tdBIYQFtBi0by7EmWvbEJzeRN8BenAxMH+NS46oa86GxwEQRDCCU1ccH0LPUQu5gQrshbNROqMMbBXteHQk5/BdqgWnnZXpN+6EOZQ4NKSVvLCelSt2Iv2hDhgylC/I6fJ2LEODQOFhNFoVMFkMiEqKkrEhSAIYcfAsbeyUo4yoeCmi5B90Ry0lzVh1y/eQd3aQ3C3OQORBOHMU7++GMVPr0bJSxvhykqBYeYIGEblBb7VxEdAWOjoAoPCgoGfBUEQwokBUSv5vF71rgYKjPgR+chYNBPJ86eiYWs5ip9ajYp3tsNR0+JfDVEQzgC0VnChrPK3t2l5cA0qPt6P9rhY+M4dDYzMBeKOOnF2tlrQYmE2m2GxWNRfEReCIIQbEV8rOWoa0bR1P+pWb4fH7kSUNQZJU0Yh+9qFsAwfjJr1pTj8wnqUv7MDTduPwFlv04SI+GEIfQPzFhfIatxahool23HoydUoX3UALV4DcI4mLDgckp4QiM1V670dgeJCFxbR0dEqiLgQBCEcidhaidYKiom6tTux/2+vYvfDT8PV6LdORKcnIe3cicj71g2wDMtH1ScHsO3Hb6Do0RVqmqqjrlW924HvIeFqiWwQ2NOUIOGE4UR5RNvPPOR1uOFpc6q8VfPZfhT933JsfPBFlH+4C+0pmpi4aDIMF046ZjVOCgqPx6MCLRcUEbqwiImJUYHb4nMhCEK4Ydj11/M7xgLGfGNZ4NOx2CvqULVyI7Z88xEM+cpMFN4+BwmjCrRKbbj2bfi9rdHrcMFWUoHip95Fy74SxA3JQe7l5yJt9ngYLWa4tcra3taOhppa1O3cj9pPt6Llk20wlFXBkhgDa0EaEsZkI3lsLixpcbCkWBGVEBM4uiAcC4UDX+VvjDJq+SuqQxxAE7J8WZ6z0QZ7eROa91WjeVcFHJVNcLq8cCXHwztDK0PDsmHgMt9BQyFdCQsOg8THxyMpKQkpKSkq8DNFBi0agiAIvYHPV6L9W6fqtoYtpco/8UhpE9zXzFQz2SzxVlitVlX/ZGZmIi8vD4mJif4fB4g4cdFeXoP69btR+/k2uBpb1XWmTh+D5EkjYE6MUxU/K2uXy4XW1lY01tWjYX+JloBFsO04COfhShiabIg2+GDVhIbJatGCGSa+QEoQuoDCgkLCYDTAwDUpdHGh5TM6C3NGksvmhKPNBYfBCK8mKpCbAnBp7yFaSIwFzJooCaALC304RLdYsDCzACcnJ6vAzxQbYr0QBKE36R1x8ZeFR8XFPcsDn44l7MWFVolzCKRNEwb1G3ahfuMeOKobkHneVDX91DpY6xl2Gpdmpd3e3q4ERnNzM5rqG9BYWoHWXcVw7CuDt7QWaLYBLq3hcHth8HhVo6GqcKnIhc7YXUB9K9DmUPnRn1E0KEoTNPFAP4qcVBiGZGqiIh3ITgaSj13WW3fcDBYWFA0UD7GxsarwsjAzJCQkKGHB/eJzIQhCbyLigrAydrg0YVGBQ08uQe3qHUgaW4ihX12M5InDYIg62iMMRrde6AKjpaUFTU1NKthsNti1/S67A77WdhhbHDBqjQcrcVb2ehAEHV95A/D5HmB/JeB0A0YtfzCLZCUB4wqACYNhGJ4DxGhig9YNE7/3B11U6IKCgdu6sOCwhz4coguLuLg4JSzEaiEIQm8j4kLDUduEqqXrUPbGShg1IZFz8WykzhyL2EFZiOI7GU5S8bICdzqdSmBQUOgCg3+53d7WDrf2vdflhk/rTbK1UEfTjinVuXAMrXYYDlUj6tW1MFQ3qWEShdkExMf4/SlitZCeAO/QLHiHZ8M3KBU+7Xu9ADI/EooFClmuYcECTCFBQREsLCg46IMhwkIQhN6mN8SF6d7LC38W+IyMGbcHPh2LW+u924orUPn+GiRPyUPK5Hw148JgSNW+PTuOZHTabD14BGWvr0Tjln2IzkhG9oWzkH7OBMQNzoGJyyZ3U/HqlXhni4QeVByanNnTjNLuM0r7y8ZCfZYgIShYouCLMcO4vwKG5nZAE6QKDqdpeRUt2r4GG9Bog6+2BSivh6G4RhMijUCrQ4lVg5ZnudBblNk/I4SFlxYLCgoWXAZdWNBiIcMhgiD0DVoHCe1qxpu9shk1HxehpdkB75g8NaPNZDF3WFVZJ7FuYp0VTL+sneio2bjjAMqXfIbGTXvV0t55ixcg98q5sBZkw8DKPkRYQetj2npFrpufGfRxbSYce4qMyx4lvfMlSOgI0RaYUuL9Qx9pCf5hER0KVa1ActVNwzBN+KYmIErTHKbGNpia7DDb3TBr2xYlKmI6RAULLB03O1ssRFgIghDu9LthEa49QafN0peXoXr5Rgy7++oOUXE60CSt+2AwtLW1KV8M/mVwOBzq++BxcUE4BlopiqvhXbIBvnVFft8LEh8DA30urpwBQ34aoAmR4HE13XqmC10KCApaigkGig1ui4+FIAhngoHlc6E1/jTRlL66HNUrNsLd0obBt1yCpAnDEJOVqtavOF10HwwGigmKCrvdrsQG/3K/2+3u8OYXhONwaAL1uZVwvKsJjOY2tcsyfzyM2alwH6xA7M0LYBqaDQP9gQJQVND6QYsYLWQMuphg0K1m4mMhCMKZYMCICzpTchnvivc+R8OmvTDFxiBtznhkLpiq1q7oyTBId1A06IsXUWAw6IJDFxcMIi6EE2Fbugktb6+Bbd0e5QycdvflsE4YCtsn2+DyeRE3bwLipoyAMSAw9KEVWiUYKCJ0QcG/+svJGARBEPqaXhIX5wWJixWBT8dyNsUFXzjWVlqFujU7cOTtVYjNzUDW+dOQdeEsNTukr6Zt0IqhWyn0v8FBxIVwIuwHy1H79uco/etr8LQ5MPQXdyJz8TzYth9E9YvLYS7MQtJ5k5EybTTNFh2Wi+BAQaH79oi1QhCEM0nkiwutgXfUNakZIYeffR8pU0dp574cSZNGSIUrhC0UxOVLPsX6u/4HzsYWTPnfb2LE/TfC0+7Q8vIKVH6wVg3ljfvJV2CKiz1ugTdBEISzSW+Ii7Ct1ehf4WxsxcEn3kTtqi3IOn86hn/9WiSMpKgRYSGEL1wCnKvC5l41D+ak+MBerbBFW5Bz8RxNJI+Go7YRB7S87axrDnwrCIIQOYSluOCMkLbSShx4/HXYSiqROHaoVlHPR9zQPJis8gIxIczRxG9sXoZ6WZ4lNdH/vhHuNhpgSdOU/oKpSBxTiJpPNqNu7Q7Yq+vV94IgCJFC2IkLOm+2aYKiavlG1H62TS2IlX3RLKRMGQlj0MudBCGcsaQkqhfmJQwfhKiEY98hkjiuEOnnTNTiJGj5fAOadx5S78YRBEGIFMJOXLiabaj5eBMOP/Me0maNx6BrFihfC0HoT1AI00qRPnfycWuw8LvkicMx7J7r/W/w1US0vaI28K0gCEL/J3zEhc8HLul9+D8foEarbLmMd8EXFsE6OCcQQRD6F1x7hVY3Wi86w+G9hGGDUHDTIrSVVeHIGx/Dp7+PRBAEoZ+jiQtWaHo4e7iaWtWqm027DiJ2UAbyrl4Aa362/x0hgtAP4XtCEkbkKwtGZ+iHwTVaKD74XpyWolJlwXDb2gMxBEEQ+i9hYblQ7wrZzneFfApzQhwy509V49VGi/hYCP0Yg0HNFjmRQObibxQfKVNGKyvHkTdWwl5ZpxbeEgRB6M+cdXHBKafNe4tx5M1P4G5tUz25zIXTVMUsCBGPls8zz5uK5Mkj1PoXzbsOKSueIAhCf+asi4uWohJUr9ikKtURD9yEZC6QJYsKCQMIDo+kTB6J3Kvmouz1j9G4tSjwjSAIQv/EeLZcLmixYA+t8v3VaCupQPbF/ummluQErTcXiCQIAwAOj1iH5CDn0jlwNjSjaccB2IorAt8KgiD0P86aicDTblfvC2nafkAJirzFC9TaAL35EjJB6C+wDCRPHIHE0UPQdrgS9et2KgEuCILQHzkr4oKVpr2qHgf/8SbMqUnIvGAG4rSemwgLYSDD6akFX7gQbpsd1Ss2KB8kERiCIPRHzoq4oMm38qN1cDbbkDZrnJoZIggDHX3qatL4oWrNC659wUXlBEEQ+htnXFy42+xo3FaEmpWb1MwQrlRIhzZBGPAYDMp6kTZ7PKz5WTjy9irYq2RqqiAI/Y8zLi5sB46geXexepdCziVzVCUq004F4SiJY4YgYdRgNXTIsuKslzenCoLQvzij4oLjx9WfbEJ7eY2aHRI3OBum2OjAtyfH6/WiubkZLpcrsOfUaGtrQ3v76a+C6PP54OFL1rTj8bpaW1vVvlDhb/k7t9vfK+28fabpfD82W8/M8bzupqamjuvvvN3XMH84HA51/aebR0KB52A6Mc262u4JTqdT5Un+5XOIireq4REOGdZ+thWtB8q0BxSIHCK8npaWFpUupwp/y2PwusKRznmW13oqZVDPL523IwU+R7vdrtLnVMok6wL+Xqfzdl+jl48zcU7mH9blrEu62u4Jet7kdZ9KvdDfOWPiwut0wVZcjqat+2GMikLuFXNDFhbk8OHDuPbaa7Fy5crAnlPjpz/9Kf785z8Htk4dZpjdu3fj5z//Oa6++mp87Wtf65Fo2bNnDy655BKsWbNGbfNYF198MdauXau2zzQsBDt37sSPf/xjLF68GN/85jcD34TG5s2bccEFF2D79u1qe9OmTVi0aBF27NihtvuaI0eO4JlnnsEvfvELfPLJJ4G9fcenn36Kq666CgcOHFDbq1atUtsHDx5U2z3hjTfewEMPPYRXX31VVf6ELzvLueQcNGzah5Z9pfA4etbAL1u2DDfccAPKyjRhcopUV1fj5ptvxvvvvx/YE16w0dm7dy/+53/+B9dccw3uuOMO1NeH/vr64uJiVXY//vhjtX3o0CGV989E/jmTsO78xz/+gRtvvBHnn38+NmzYEPgmNP7rv/4L//73vwNbwLe+9S08+eSTga2+hcLoww8/xP/+7//iX//6V2Bv38E6/Otf/zpeeumljm3W7fp2T2B9+qMf/UhdN/PpQEMTF/oiFz3sGvUQ5QG/bAOMMRYkjRuKmJx0GIyhzw5hY86Gq6GhQW1XVVXhJz/5CbZu3aq2Q4UVCBui04XXwcaAmX/+/Pm4/PLLEaWJplCh+ue1s6fU1faZhg3JCy+8AJPJhPPOO08JnZ7AXtGWLVuUyu9quy9hr6C0tBSvvfYaUlNTkZGREfim72hsbMS2bds6BCW3mT97IjB1cnNz1d8333xTNY7MU1EJVsSPzEd0ehIc1fWwHSpXcUKFx6Gw03tcGzduVEK4tjb0t6+y8d61axfq6uoCe8ILlhUKM97jueeeq8RdbGxs4Nvu4bPiM+Oz62o7UmCHrKSkBJMnT8att97akd9CZf/+/aisrAxsHb/dV+gWl6VLl6r8XFhYGPim7+A5KQTYvhDWLdxm/dhTEhMTMXz4cCVe2ZkcaNaLM2K54HCIs6EFlcvWw5qXgZTpo5Vn/OkslsWKj4r8TDReXcEe5gcffIBhw4apHtMXv/hFWCz95yVrzOgUAOvWrVO9bRbed999F+PGjcNXvvIVXH/99YGY4Q+FHvMCe+kzZszA0KFD1X7eIws2G209vPXWW3jnnXewfPlyZW3hb8/U0M2JGD9+PEaOHKmeAxsB5mm+lj06JRHJk0eqxeaadx8KxD41eEweO5JM/rwnNjwFBQWqDN5+++2wWq2Bb8MfvQzSklBU1HerstIaajAYVB1FiyTTqz9AYcE8y7KdnZ2NmTNnBr7xW3qDyzXDkiVLVJ1MazA7G2d7OC8rK0tZbymCeQ89EfaRwBkRFx67A/bKWjTv5BtPM5XD2umSn5+Pp59+WvVYzga6uMnLy8OgQce/UjvcYcFlY/bwww+rQsleG606gwcP7nHP5mzD62YlNGHCBJUv4uPj1X7e43e+8x1l2mfjoweaOb///e/j//7v/5S1iBX82SQ5OVn1yhhoStV7hXxxH/0uaPVr2qWJix74E3RmwYIF+Oc//4mcnJzAnv4PhRIbkczMzH7TYAZDiwuHZmjyf/311wN7ex/mp+joaIwePVqJjP4CLUifffYZ0tPTVScuLS0t8A3w7LPPqg5QcLm+88478cADD6ghxo8++gg1NTWB2GcHWtHYNowaNUrdC60XA4kzIi7ay6pRv2EPkqeMVLNDjP2oh38iaD6jnwLhUEJ/gw0qTeVsbCiQ9Pth5WPsZ+92ocijGXPevHnKFNkZjqGuWLFCBfoicPyU48gJCQlq7Fj3ezmbcCiHVpd9+/ahosK/9LfBHKXetePjsymuUDOsuP6F4IfOdv25DPLaaT3js+/LDgpFDK0kPRm2DQfYILNscmiBnZ7OsLzo5ZqWyLfffht//etfMXXqVKxevRrPPfdcIObZw2w2Y/r06UoIDzRxcUZym39K3SH1cqaYrFQYjMeqZ90jd/369WqMl+Yjqj5mnokTJyrl2hmq8UcffVSpV44lEjaQHOfnWDgbHBYofsegm8o7w3PRLMmxVmbKSZMmdXm+YDiG+cQTT6jKgY5SzNisHO677z5VgDkmqZs6eU3sWXG44ZxzzlFDJ6H0HpgmvH6aNHlt5eX+MXcq+GnTpmHMmDGqQmUBYoPKY9PfgDAuh230ngrTltfEYQ+aRocMGdJhjuV18/jsMXN44C9/+YsaOuB5eD+8Bo45UojopluaKGklmDNnjrqGUO+Hx//88887euf83YgRI9T9cFiA0CmTgocm0JSUFLWPwx1Maz0Or50Flen+pS99SQkLDm8wr3RlFqclRs8jvA5anWjhiIuLwx/+8IdjfHD4PRt45iPeN+PSvMlj835ZWYRyv6zQmbdYydFCxIqSoo3pPXv2bPVsYmJiArGh7nXs2LEqfXSnRL7Aj8uCm5Pj4ba1o/1ItXL0hCY6+Iz5TJgO9NfhNbIS43Ppyu+AcVn58pkyf/M+aa1imePz4Jgy86Ze5ni8zjAvMB7Tnc9gypQpqrwE38eJYD5mb5Lnp6UmGPZCma433XST2mYeoCmZ98Lrps8Hv2fa0SGR+Y+N8mOPPabSlRZMNkK85nvvvVflAVqzeG/Ms8x3vGemL8sJ0yfUPMt7ZjlhnaI7x9LCxHvn9TH/v/zyy+r6KG5ZBnls5m9eN58z4/AZ8ZpYBul8ynzPfXR8prhgfqQVhnUah3d4rcEwzWllY/rxXBTJzFsXXnihujbmYd4ne/f0mWKDzPPzeBxC4GddiFFs8/zMn8xvTCM+T5YH7mcasc4KtZMRSh1BJ1k6P9M3jXmdeY3PmL9jGlHos8zwOplGrN94n2wPaHXj9XSG9Z5ergnvn3maz/+pp55S+VqHz5L3y2vkMZlvmA+YTvSZY/7gdXYHj8PfMs1Zb7IjwDqez5B1/Ny5c9Vx9bTjMXkveps0kOjzLip7XfaaBuWQljR+GCxpx1YshA+LD+q9995TBZmVOytNZvwTmbZYAT/++OMdmZkZkw0oG3568jPTcpsVjO7RHwwzIitKevlz3JYPn9fB/d3BQsHKnZmKx6BpU89krCBY6HlMXgPvhRUfPZ6Z2dnQhwILCdOAlQjTgcdhYCXD++M5mdHpM8Hz8bzcZmPIe+H5qZa5jwWWFRPTlwWM+1iZsAFlQ85KRTfF8y+PrTs0sUDQNMnr0K+B52NDwUpLr7C6gxUp75+/4+95HKYPt3l/HNZg+vEzGyK9IudzZYXA58pnw2tnnuC1c3yVz4zCgulK0dSd3wsrfhZ4Nohs5Hg8npfoz4/XQF8NXiPzEK+H26yU+FxCgemn5ysegw0L8yorWR6/86wSPgM2nrw3PhsdLokfk5mKKGsMWg8cUbOueGymCZ8nyw2PS+dN5oUTXR/zEodFmF6EeZjPg2nIMqI/Dz4b/dkHw+MyL/CcetowzZl+ocDro5Uo+N50OBuF+UuH2xQMTCteN8sv8y/zAOOxzPE4bFDZsDHNmGf1bf7VyxzzKK+VacN75XXw3kOBeY+/1cscPzOwp8x6g8+Q5+Oz4DPVOzQsg3raMt2YRsyjzAu8N14/97FMcB8bTloPme4U98wrnWG9SIdrvX7iNus/5jHmAeYx3iufDa+Xacbr5zXxGtjZYBoxcLiQ9QAFGv2PWJZ4X0xjClDeT0+GFEKpI5hHmW78jtfD+2BZe+mll1Sdw7LHeMyDvH7eD6+TcSjYOgvSrmDZZueOooP1QHBdHlwH6unFv8wjPblfHpP3xjqB18pnxXzAMsS05zmC60SKDD5b/o7PfSDR5+LC63DBWdsEe3UD4kfkaz0x/3h4MCwIdMhhxrviiivw29/+Ft/73vdUIWUBCQUWHo5bsidA9c1xt0ceeUT1Mjo36KwAWNhZIXCaEIUKx+HpbU7F3R2Mxx4vFTKnGvG8v//975ViZQZjQeO4P6fIcTyVUzSZmV988cUOC0R3sPAzPitX9nR5HAb2zvReIAskx/Oo8Fl4WWGxELFSphe9LpaYqVlxsWfLgsf713sNvN/7778fv/rVr1Th/OUvf6nuh38JKy9W1FT2+jXQz4W/ff7550MuMKxAGJ/pwJ4Vj0N/j6SkJPUcWPGwIOo9NhZY/X74HSs9XjOvnUKO+2nxYDqzsmI+YQXUlemXlRTTQhci/D0rVs4uYU9Pn11CMcYKkvfL3hWfHyv7iy66SD03Xj9/Hwq8/v/85z+q98bpvWzY//SnP6keLys13lMwrAyZFsyrvN5gaO3j7JHWgxQXblWR8fnzfthT/93vfqemGTIfM31CgQ0C75+VP3u/LHOcfcU80Pn8zENssJkX2BNmnuEYN/N1V1aS3oD3wgqfeZOm7h/84AdKPDJNmdc5m4nXwuf07W9/W+VZTjFnHqAQYOPPNP3Zz36m8tqll16qnskrr7yihGwoMH0Zn6KSVk09/9O/g407hQLzDOsbpgPrL5ZJvW7hb5lPGYf3wjRkT5vXyOdEgcTfMP+dip8TGzHmJdZHrOuYD9hzZvlnA8i6gVYVnpMWXqYRA61NFD+0ELD80oGb90WLBq+X90XREyqh1BG6bxobX4oq3juvnZZfXQgx73Mf05fpwXzHep31bFfWMaZrcLlmGrOxZ13B/BM8u4SikmWGnZYvf/nLKr3on8H8znRgeoQC2yQ+Vz6/u+++W5Vr3sN1112n7otWOJ5bh8dnuWa+6NwORTpGrQanrccf+gBHTQM87Q7E5qQhKi4GBtPxeobqlA+fJu5Zs2apBpQZg5ldN4V3Bx8cFS8rAZre2COn4uXaGAsXLgzE8sPM/JKmmJnB2HAzk7AA9saYJHsBbPBuueUWdQ2sOGh245oWrPQoGkKBhYoNHQspK3Eeh4FrF/C4bGB0ccFKlI02G2M2muydMKOzp8dCR2ERLC5YCNlYchxTN1GeCKp6Vho0WevXwPSkQOD1sWCHAgscr4fe0zRz8jh8zhym4TXwulkQaUIkbAh4f+xxMn9QWFC48S/FAY/H+2GPvzv+9re/qWtmoFmd+YNe87x+fmaDT1iZsVGiiZrpzEaUFQN/x+ECNhihVhAUPhQmvF8+L1aOzI+s5HnNfF7B8N4ZusKcFA9TTLRWlhrhc3tUY8eGhfmWJmX2fHm+u+66S6VlKOjDKhQlNIPzWfC+v/rVryrzbjAU7ByqYEP1jW98A1/4whdUg9qXUJTxWlgPMM/yPpmWvO6urB/BsIGi4L7ttttUg8a8xnvkmhbMT6EKYp6HeZb5jGJGz/+sU3hdbFDZwNG0rosLNjpsQPl8KdKYn1jmO4sLNuLM17y+7srgiWC+ovhi/uUxuM18y2vorp5hI8yGls+Tac37YtnjsAvTh3VkqJysjqDwYB1EccHAtGEZ4vFZ5vmcWGeyzmJ6U9To4oL1mR66gnVgcLnmM2J+5pocLLt83joU0bwv3h/zN8si604KKz4X3VLaHXzOXCuJAoXPnY6yFD8cEmM+YVkJtlyQk5XtSKbPLRecgkpTLntfXDxLS+XAN0dhpmLhYwXCjMmCxsqYGYwPLhRYyNkb4++ZOXkMZlxm+s4mNRZ89hyZwZghmNkoCHojA7ARp0ihKGLG4zUwo7MhZ2XSOeOdCCp59rD4WxZKHodBr8jYwLLQcZv79Z4+MzfTjo0hCzYrMaYtAyshjm3yt6ykWamw4j7Z2CotDjyefh4GvReim1hDgdYF3g9/x0qQx+EzYjrxL8/D9GeB518em+KCFQifH/0A2POg6GIas8JiRc38oaezbtnoDJ8xx7H1wLn+l112mfIrYV7guQnPx2fEdKMw4IyS7373u/jNb36jevm8fvZcQoF5gOnKmTi0av3whz9U1jh+Zs8yuHdDmH9ZDvhsOzc0fN+I0WKGq8mmhhnZcDA+p7Ay3/Le+VyZrqEKZFbwzAd8rhQWPCfTkcfoLNjYS6f4Z7mi2GXDyuvsS/jMeW18vhzG4n2ybLP88N5PBvM6YX3C62T68B7pd8V8T+EdCjwP8wPPy3zL4zDwOExvHot5hvmI52FeYv5jY8lnz7Tis+b1sBwyvVnmKFiZh5mfaKnjvZ6sDJ4InpOCgL/nc2c5ZdnkNXRn8WU5Ynnh9fD3vC9eF60aTJ9QOw0klDqC+Yr1OfMRnyHFBdOPM7kYh/UXz0vhzN+x3uM9MZ35+67uh+cILtcUkxQ4FNo8B8WeDtOfdQl9MWjNYln8f//v/ynfOQoepkeo8F75jGlR++///m9VR9DyS/HNewrOn6yTWa5Zp4XalkUKfS4uOEffq/W2otO1Br4LqwVhAWVgZjrVBp4PkYWKhbQ7xxxmflagbFiZEUJtIEOB90GCr0G/Jl7fiVR4V+j3E1zx8DhMI35HWAh5L2xsqcBZaFmIqaRZUFmBsTFifAocVkis5BiXhZBpcDJOdD8M7On35H4Yn8fR74f3oR+X5+E2r52FN/h+aA6ngydNl6zsWVEQ3g8bRFaKTAP2Prpq/JkWtFTogeZQ9vJptWDvKdiKwHRixcpzs9JjYIXBxpcWKDZyocA0prmV5mleN++DvUUKYD6PznmOFSt/Q8HbuXE3RZuV74W7rV3NFmFaMd1Pp7zwGAw8RnD+6gqmMe+b1xVK494VvE6eR792wr9sNPS8HAzLKPOqfn/8rV6GeIyToX/fOc/qvw81zzIe4/O3wWnE4/C69Oum5YiNIPMN8wobSgoSfThUf+bM/xRobGQoLrifopmNO9HTiOcNvkemN3/bGcbVxRfh7/k8O/++K/TnEJyHevL7YE6U3gx6HUHLCtOEgoZihOWK6Uehz7zPNKNlgQ0x05NlmvUA6wOmK3/XGZb/4HL94IMPKssEBQvPy+FpHZ6LeZdljHUiz8+6hCKfnRQ+l1DgcWmB1v0r+HxZrnk8Hpv3Epx2/Mz7ZVqwbA8kTl6r9ALu1jb4tAdiTk7QMm/Xp2OlxczHxoGZiw+EmYG9Xb0AdwcLBRtaZkL2FHgMBlZenStDejDTpMwMzQaAPTM2SiwEpwvvg+dlJcNr52cWDl4TCxcr6lBg5cpCxt+yAOj3wwzMa6WvACsDNnq6WZXDQkwzFjr22pgmNDOyMWba6JU1j8HAISRWiieDx2aBYnz9Gng9+jE797JPBOOx98hKlvfE4zB9mE48Ps+jx9PvjffDZ8eeMi0c3EfLDHsZTBtWPiy0/MwKWu8VdQefAQULfQ2YX3g9hMfiM2KF9/e//12twEqLBf/S/4WzE5i2ocBeEx3u2MulTwBNtS+99JIao+WwUOe8xnvib9hr61wJUVhwhpXPqeVj7XeseJlObJyYv5mWTEMKllDzMBslpjPTn+fWny2PwWMFw/FkDknQ/M30oM9DTwUG8yLzNC0melnjMdjIMs/2JswLzCsUiLwX3hfvkZU8LZnMN6HAa2be4m+Z3/U04nF4zTwW8wyfBc/J8kVLBe+RQ0y0SvCemS95nywvTHdeG7fZuNFSwOdJuJ/H4DPQnyXPx3N31bieDqxzeS3MQywzPA/viQ0lryFUEU1CqSOYlqxraG3gsBWfDdNW7+CwcaZ/GfM/4zE+r4+WTObRUIay+BumJTsT/Mvf6ej76ffEGXZ62aa1gX487GiEAvPu008/rfIE6wnWCXS05b577rlH3XtwGWQdx3LNa2OeGEj0ubjwwzEn9adLmOg08fIB0VmRGYmZnBU8nYJCgRmS426sAOkBzQqAGZwZqLPzHAsPz0cnNlZwjMPfMOOcLqwsKJCYYVnYKCpY4dBLmc5WrJBCgYWBY4lUyfQN4HEYWBh4XJr6WbERqnsWcKYXCyzNk6zs2HPimDErEN2XgRUIj8Nr5HBQ515yZ1j4GZ+Nq34NTE8GHl/vdXUHG0w2qhza4DXxOKxgWdBppdD9HggrGD4jNs7sUVBcsCHk73Vve1Y6Omzwed8c3+Z9dQcrbvY4+Nx5//o9sALgODF7Nrwu/mVDwUqK100nV6Z9KLCSYcPPhoyVJLd5PJphaS3pDNODZluKKFbIwficWu/P41VL57Mg8bkxfVixsXzwt8z3TC+mZSgwzzAPUfDQl0Rv7Hh9nZ3bWLb4rDlMxN4a8yAtMj2B+ZnCjeWAaa+LKZqWOR7em7BssyzTBM57YvrwHunkzHtmXgkFNrC0VvG5cOYHj8NAp0jWT7SmMc8QPjOKZzqI816ZP5luLMP0zaAg43WxzOplkGnAeHpDzrzCsksBzefJvMd6jHmRdUhvwjLFhp7pT/HD66Glk06yfE4c6gmV7uoIveNAEaEP1zKf8ncUVHwmvE/Wc0xTPT1YLumDx/zCstMdFDjsKOh1BPO4DoUenw+dTVn+2DbwGnjvdM5n3REKFA7MW3yOLNfsqPBYHP5kvugMr4nPkgKLHb6BxOl7MHYHrRWaqFCL/5ygV8XeHZ1x6OXLyoeZjIWWhTNUmHHpNU1LBJUxMyQzADMqnbmCofmOx6YQ4G9oPuPvuJ8OnqFWPl1BdcwMRWsIMy1hZcKCcuWVV6qxx1BgY0znP4oeXp/eILFCYiXFQquLCx6TPXFWQnSKZXryfBRbLMhsmCkuWJBZSNm4sjJkGgSbMruClSMbRlpAOAOHsKfDCoj3w7+hwIJNZzMWQooLikjCyoDCgpW4DsUFA72yOXxB8UARQHHB/MHtYEdfVpQUIZxxxB6R3kPU4f5ghy2mA58RG3862nLcmTDP8X6ZJuxFsaLlvTOdWYkwX+iNSXfw+tkbYrqx0mblwuOwJ9s5zSmI+FzYANFZsnMe8ThdypGT01FpwaDFic+Qlh1aRHhNvL7OouRkML14fSxzFE5svPRy0Rnu572zomeFTKdIPgfCxoJCpzvYaNLPRS+bLJdMC6ZLqNa8UKFlkg0AG3WuwsrnzfTivTHPhtqDZBnimhSsG3jPuuiiFYH5j7OIeA+Eac97pFijpYcOrzwf8yyfE/MjRSHTUrcW8Dest/Q8xY4He8PMMxRGbKyYPjwH839vWi9YH/B4fP6sN3gOlgkGXjPrmFAJtY7QxQXzG9NH71BQZPBZ0XpBoaHnQaY//VZYX9DKzLqC+3RYRjkcEgyfNYcmWEdQqOjogpNtC0UmRQID75vn666TpcP4fO7Mw3RyZh3Fc/IZ6nlBh/ULRRPLPzuWegdvoGC697LBPwt8RsbMLwc+HYu7tR224gpUvr8GyVPykDLZ/0Ilg4Hm25M3Tu2lVWgvq4G7zY6Mcycqr/fOsODpPXpWXlSCfFiszJgJWRHxQbGBYM+SFSMrC24zY7OyYHw2YKzA9fFrxmGmYtAzOAs2GyNmaBZcNgLMHFTbbNB5LBaC7qBgYENG03qwQuYx2APRr4/xWIlQ4LDQ8l54PhY+/p6iio0J47GHrG/z2nhcmtVYCbBnyTRgBUUBQ2GkN1L8y2My7ejJzjRjhc0eA49J1c7zsxCxx8nr4jXxOPwd0dOMU4GDxRWFCa+F18deIK+Bacbj8VmwYeEx2MviNbLBYlp33ub18H5YefF+2LOg1YhjzhQWfEa6WNIrWza6FFgUTkxT9giZZqyUgns4vAbGZe+D52LgdbPyYKXEa6Yo0wPvRe8lcooixRjvkefn75gfeW28X5p2eX/Mc3x+7O2xEuE9sLLj71nh6cfWt3UxwjTlUBDTg+dgnuZ9sGeoi15WPrrFThcXelqQ5l2HYDtcgaj4WKROH4PUnCz1LHl/TGMem9fNY/M6eR5eG58pxRPjcpt5jvmL20wzvUzwO14j75PpyoaTZYBpwPLCCp7Xy3ThX8ZnRc28zmfTuVLtCr2Ms5yxfPPa+PxY6TKt2INnw0MotJjH9G0dvQ7gc+B9cpvPSK8TdJjveX+8RuYX3jefBUUH4zL9ea96GaUIZ7nnNuPrdQrvi+WEDaduReA52UjwulmH6HmVZZCBZZBliL1U3hfzAn/HMsnfMO1pCWG6Mv2Z9/Vj8HzMX8xHzHc8Fo+pW1uYfhye4j6mI3+nbwfDPM9nyLKlbzN99W3CtGc6sX7huXhOphmfP++f6a/nQf6e96OLcPoPMQ10ARJqHcHjMR8wr/Ge+Dz4O14LyxP/UoDyunhvTA8+K/o3sN7gfv05M02ZD/Vyx8BnxHg8N+s2dhR5bsJj81nwfCwzTD9eL58H87duQeKzplWKdQzvWd+moGcc3gfzPfMK61beC2F68xnzfKwDeK0sz6yTKEqZFrye4HId3tDBtV1ZTO2Vzaj5uAgtzQ54x+QBSVaYLH7HXdajFGasL5jfgzHs+vO8DnPCmPu6Nr3ZK+pQtXIjtnzzEQz5ykwU3j4HCaMKtIQern178jH3ho27Ubl0vVoAaNJv7oUltfuGW+g7OFuBhZIVI6dqsbBEAqwAOMzBhpr3xR5Tf4GmdFq69PUIWHkFc/g/76NxaxESxxYib/ECWFJCt+gJ4QfX46DoZAPGvBqKOBuosHHnMBzFN0UM14zpL1BE/vGPf1QdQgoO3VLTH/D5OAxVB6/DjYYtpdj1i3dwpLQJ7mtmwleQDku8VQlFij8KX4rizp1yTUZRW+ih97GkJqk3PNorajUVFJpzptB3cJybPV6q8kgRFoSZmyZlzkEPHmLpDyxevFhNVaXVqSurmaO2Ub28LG5wjnqZmdC/0R1i2fvvPz3ZswPTh8MQfBcQX0zWn6Co+PWvf63W0qDVY6Bh2PXnuUGWi66dWk7HcuFqtqHk+Q9R/PS7mPnU/9MqyGwlNsIVevNzXPhk0NQXvEBLf4KOaTQF0qQZyvCPcBbRRCBX5Nzx8ydgr6zD+P93F2Jy08Om/HB4g71wmu9PBkUfzeCCH4770zzPYQqWwUgS+UJk0EuWi77FrF0EX77ERYDaSiqV/0Y4w7E4jvmeLHRXmYYzHHPn+J8Ii/CHC2a1V9XB3dKmfJVisrkQ3cl9nM4kHN/muHNXZSQ40L9COAqdsekToPt+CEIk0ueWC1K9chNKnvsAieMKkXPZuUgYMbDm+wrCqcBXrFctXY/q5RsQk5OG0d+9NfCNIAhC39EvLBckNiddvRG19rNtyvdCEITu4bL5dau3wxQbjcQxQwJ7BUEQwp8zIi5istOQPGm4Gje2Ha5U7xsRBOHE0NeCjpyN24tgSU1A0rihgW8EQRDCnzMiLsyJVsQV5ikLhq24HC37QnvlsSAMVJyNLWjacRBelxuxuRmIHXTqC7sJgiCcaTRxoU9D7XC96H0MBpiT4pBzxVy0lVQpUy9XHBQEoQt8PuX8XLV0HVImjUTc0LywnmElCILQmTNiuSBRcbHIvni29jdGWS4atxWpMWVBEI7F1dKmykjd6h3IOG+qOEALgtDvOGPigm925JLhaXMmwhhtQenLy5XvBZcXFQThKI1b9qFl72EkjStEwvBBMCeG9t4DQRCEcOGMiQtiMBqRNns84ofnoWnXQdSv3wVHHdcwFwSB61qwPNSt08pFdSNyr5yH6IwUJcwFQRD6E8Yz4XIRDFfoTJ0xVuuR5ePwcx+olzLRaU0QBjocJmzYtAfNu4thskYj5/JzxGohCEK/5IxaLnQSxxRi0HUL4WpoUQsEsUIVhIEMBbajugGH/vU2ojOSkLt4PkwWi3KGFgRB6G+cFXHBV0cnjBqMgpsvgl2rUCs/WqfGmGUGiTAg8fnUW4MP/+cDJSaSJ41AMte1MIqwEAShf3JWxAXX0+f7RjimHD98ENrLqlHx3udoK61SSx4LwkCiraxGTc+u+WQz0maOQ8qUUbCkJQW+FQRB6H8YfTj635nEYDLCkpKAgpsWIWFkgZo9UvPxZrWKp7yaXRgQaEWOfhYUFdUrNij/ityr5qnyIAiC0J85K5aLYGKy0pB7+bkY8qVLcfDJJSh/exVshyoC3wpC5KKExaqtyu/IYDJh1Pe+hNjsNDWrShAEoT9z1msxoyUK1oJsZJ43DTmXzkHTzoMoe3U5mrbtl1kkQsTibm1D0+5DKH15KaISYpFz2Tnq5WTGmOhADEEQhP5LWHSR+NbHuKG5KLhxEaz5WWjdX4bydz9D0/YDcDXbArG6wXdmh3UE4VRxt2jCYtchVCz5VC0klzptDDIXTkOUNQYGceIUBCECCBv7q9FiRlxhLoZ+dTGSp41GxburUfL8h2jZUwxPu+Ok4oGzTDxOtwgMIezxut1oOVCGyvdWo/TlZRh07XnIXDQD0enJgRiCIAj9n7Ab3KWXfN6V8zDqu7eqN6ju/9trKHt1xUkFRntlHRo379UqbnEEFcIXDvNxuI9rWTTuOIDR37sNGfOmiLAQBCHiCDtxYYwyISYrFemzx2HIbZchNjcdtWu2o+ivr6ClqBSeNnsg5lG8mvBoL69Bw4bdcNY3B/YKQvjgampFw6a9OPTkEuXImXXBDGSeNxXRGcnyxlNBECKOsBMXRL3kLCMFOZefi6xFM1XPrnFrkZpJUr9+N+xV9cdYMeizwamtR978BC37DvutHIIQJlDwNmzZh/K3PtHybgNSpo5WzsuxeRkiLARBiEjCUlzocEoeHd0Kv3wlss6fgZKXlqL4ufdRt2a7cvRUK3pqIiM6KxXW/GyUvfkxaj/dqqwY4n8hnHW0PEih27hNE8ZvrULFB2sw+OaLMOjqBYgbnBOIJAiCEHmEtbjQic1JQ+4VczH1z99FbHa6WnBr5y/+qZYMd7fZ1VAKF+RKGluII1olTh8Nr3LwDBxAEM40mrBwtzlw+PkPcfCfb6thkUkP3Yv0cyfBkpoYiCQIghCZ9AtxwZkklvQkJE8chtwr56o1MWjVKPrrq8rjXr1FMjYaabPGwd3ajkqth1jywofw2GV4RDjz0KeCb/s98NhrqPt8G+KH5akX9fFtwBQW8gp1QRAiHcPOP83p6N+PfeDzwKdjsVfUoWrlRmz55iMY8pWZKLx9DhJGFcBgGK59a/FHOoO0l9eifv0uHHl7FaJiLOr9JPHD85Wz595HnkdrUSlSZ47F+J/fjcTRQxCVYA388tTweb3wuTzK258Nh8/jDXwjCEfx+XzwaoK29WA5GjbuRt26XUgYka8WyOJaFsZocyCmIAhC+OLzlWj/1sHrcKNhSyl2/eIdHCltgvuamfAVpMMSb4XVakVSUhIyMzORl5eHxMRjLbL9UlwQTjt11jbi0FPvqHeSUADk37RITfOrX7tT9RAH33KJdq2XI3H80B4tqUzxQH8Oigmf263GzV0tNriabHDUN2sNiLxcTTge5kF7Zb16CR/9fjIWTMXQr1wJa14GDGYzjGYTDFFRslCWIAhhzYAWFxzT9moiwFnfhNZ9pWq6auX7a2A7VK72eV0eRCXEYfxP70Tu4vlqSmuotB+pUbNTGjbtUc54bSVVSlgoC4YmOthDFYTj0LIFF8lyN9uU+DUnWBFXmI3EMYVImjAcyRNGIGXaaJiT4nokdgVBEM4kA1tcBMGZI3xde+PmfZrAWI26tTtgO1ypLBAZ8yaj8I4rMPiWi7Xe44mn/XkdTiUiKFIaNu5B897DcNY1wmjxaSLFrDUU0TDFmmGKi1Y9UEHoCuY5r8MFd7sLHi24m+3wtHm1kqblIa0gJmrlJnnqKPVadQ7ZcQq1IAhCODHgxQUtCfSzcLW0wdXYAkd1I0pe+ABVS9ej9eAR7XufcgbNveJcjHzwC0ibM6HLdQUctY1o3lOMmpWbULNqMxw1NYiKj4J1cCrih2cibkgaYrISYLJaNKERI2sTCCfAB59by5N2Cgsn3K0Orew0wXaoTgu1aDvSCFeTA9b8PKTOGI+M+VOQPGEYzMkJkqcEQQgbBpy4oFigDwSHPOhY6W23o62sGi37y9TbVGm54LtI7FV1Ws+Ry4X7f8dFuGjBmPaX76rFuYK99d22dk1QbMHh/7yP8iWrlIjIXDgKg66ZjPR5I2CK1ip9GSIXThNHbSsaNh5G2aubUfv5AU0MOzXhWoBR37kFqdPHqDyq50uDQTKcIAhnj94QF6Z7L83/WeAzMmbdGfh0LJzeaSuuUD4NyVPykDI5X6sMk7RKMFX79swMEdDczOGPxi37UPHeahQ/9Q72PfICSl78SE09bVi3C7aDR9RbJik8gte48GnbtHCwyo7Ny1TvL1H7vV4cfvZ9/7setuxGxtxCjPzWBci/YRoSRmQiympmTa/iCsLpYLJEITYnCamzC5E8IU8TEkZNZOzVwjY4HE4YUuJhTLQqfx6j0SgCQxCEs0iTFtpVu2uvbEbNx0VoaXbAOyYPSLJq9ZkZZrMZMTExiIuLU8IiOjra/9MAmrgYFCQuvhr4dCzhIC6oDFjhGqOilEOcdVAmEkYPUQtnJY4ZoiwpCSPzETckF7G5GeqdDebEOJjUa6yNSnDYK+uQOHqwWnaZ4+LVyzaoN68666qRPncIBt8yE6kzC7VGINE/bVAqeKGX4AwRY7SWdxNjEZ0Wj5jsBFjS49C6rwJtpTVwaGXMkJUMH/15tHynOw0zz4vQEAThzDKAxIVfWJg0YRGvhAVFQuq00coLP2nCMCSPH4akcUPV/oRRWhhJsXE0xBfmwZKagJRJI9QYd3tZFQ48/gZaDxYjaWI2Bn9ptiYwhsOcECOiQuhT6LsTk52IhOEZcLc5NYFRjtYDlXBTQGcmwmc56n+hWzFEYAiCcOY4fXHR713VaZ1QYmNsIdJmj0fOpeeomSEj7rsBY3/8ZUz6zb2Y9uh3MfPfP8HsZ3+BzPOnw91iU+8gKV/yKeIKk5C3eBIyNGEhs0CEM4WRwyR5KVo+XYjsRaPhaWhExT/fQe32/9/emUDHVVzp/2vtUmuXLNuSd3nfbYxtDGZYBwcIYTGBzCSByZmEYWAmHCYTTvJPOHOCOcBAEv5sE5aQIQkBAgEMNqsBG2wD3pF3S/Kufe9Wd6v3qa+6S2rLMm5JLVmy7i8pXr9+3W9z692v7r11qxQttfWw2+1wuVzweDzw+/3hbwmCIAwOhtw4uLiUJD11e8XKdUjKTUXRtfO0x0IQ+huGSpKyUzH6xvkYs3wefI12NK7+Ag07y2Cz2bTAcDqdcLvd8Pl84W8JgiAMfIacuHAdr0NLSRmcxysxYtl0ZM0sRFJWanjrmeHDD7/AI4/8EV5vyIB0Xu9PHnvsJaxevT681j+Ulh7Fm29+gmeeeR01NQ3hd/uetjYP/vu//xcff7w5vO7GQw/9Lz75JLTeHQ4erMDTT7+GVas+xdGj1eF3Tw/rXKQXD0PeeROQM7cI3t2HYN9ZjubKmi4FhhRwEwRhMDDkxIX9wBFdIAuWAAqvnoXUouyociyam+1YuXItXnttTZdtzZov1cO/Z+7r7dv34W9/W9P+/W3b9uL11z+C39//c5jQyG/evCu81vfwGnfs2I/33tuIiopaeDjSR0GR0dV95n15++11ShBsQknJAbS0tPb4PlG8vfrqh/jqq/163ePh+gdq/YBe7w4uVxsOHapU5/Yp9u8/jEAg+nNKsCYjc9pIFF41E3F2B5wHjsF2qEJdW4sWGK2trVpgmBCJCAxBEAY6Q05ccAZVV0WNHhaYt2gCkvOs4S1fDw3Hrbfeix/+8Fe4884HT2rsAbPnO9jJycmE1dp/nhyHw4Xdu8tRXV2v7u83MWwYk4ShDfxNN/0Ut9224oT7/OMfP4x77vn/eOCB5/HCC6uwd+9BZXyd+jtnkrFjC/Htb/+9Op9DOKAErMvVvflnrKNzMOoaTsduhe9YHRz7jmphYQSGw6FER1hgdEe4CIIgnAmGpOfC72pF1oxCPTSwuyND7r//TtVrfuak9vTTv0BaWkr4U4OX3/zmP5SRvya81rfQSNJr4XZ7MXXqOBQVFSA5YuZQZiM/+eTPTrjPq1c/jmefvRff//43tTB59tk3sHHjV+FvnDnS0pKVwBiBSZPGoKnJhn37DoW3REdcUjySlNBNmzwCCUqk+g/XaDFBUUHPBZdtbW0iLgRBGBTE37GsqGMo6uIBXOeil7C6J2czZSVOX2szhl04CbkLxkU9QqS6ukH1lN/WvesLLpinetg5JzT2+COHC7I3vWXLXqxc+Yl25b/zzgZtBG22VqSkJCM7OyP8SWDDhh3aGN1yyzXKoCbodbrWuZ4Qrtpotzsi9vcx3n03tD+73XnC/nhchmg++mgT5s+f2n5ONTWN+jwKCnKREZ6Cnu715557A5WVtdqwJyUl6mt0udyYPHms/syjj76oe+M2m0OHJZhT8P77n+Pzz0tw5EilOm7I0xEfMUfGkSNV+PTTbXjxxXd0mIA5DPsZilLweMx1mDhxtDaSvA6KhOnTJ2DevI7zLS8/jpdffh933fWP+n1zn/PzQ8u8vCxkZlrVuWzEmDEjcc450/T3SFVVPb78cqf+/sqVDKFsxq5dZfpe5eZmqfuVpI/DEAyvd9asSTjvvNla5HB99uzJWLx4tr4/FAq8VobEeN957RREvB+FhcP0vw/3ZRqPzRBaXJxF7zdq1Hf5G7WX1cFVXge3eu2bPUa9z02hfcfHx6vjJejG1xymKgiCEHtkKGr0KEPGIagUSvRYpBRm99nU1zTwNKZvvPExNm/eo0MqzCfge8Yw19c3Rx07p1Hct++wFgdbtuzB4cMd+2OuwhdfmP3xMoPakL733gZt5JjHwVwCfucPf1ipl0wMZKPhpHFmCML0hmlEN2/erV8Trr/44rtarDDxsrKyThtQvqaIWb9+O44frwl/GmhoaMamTbv0fnl+PE+KjW3b9unz//3v39A5JYTXzxACBdWUKeP0e6dD2VhtuCmErNYUvQ9z7nzNa+b+167dogVKVVWdFk979hzEBx98rvMrGhr4h3N6mJNBocd7zmuorW3SuSAlJaX6unlNTmdb+NPQQmP27In6ewcPHg+/Gz1xSqBlTMhDcloigg71h+xog5sl7iM8GByeyuROGZ4qCMJAZsiIi4B6GLt1aXAf4lJYKbFnxbKam1uVkWk8qdFQG7Fw7FiN6q1v0aM+Fi2ahfvu+1c8/vg9+Pd//44ybDbVk96E7dv3txvF03H0aFX7/pYsmYsVK+7AY4/9FP/2bzfrY7NnToHA47M3z945DTaNK40fvSUUAzSIhw5VKLHi0u/TI8FecF5etvpeevhoJ0MBQGP5ve9djYce+rE+9h13fBtpaalYvfozbN3aIRZoeGnY6+qatNeB171ixZ04//w5ehRKY6NNf5bwdvFesRc+evSI8LsdcH+8r5H3ubKyHmVlx7XX5qWX3gNzNIYPz9Ofp7Cix2fduq3q+I24/fYb9fEfeeRuXHvtxXoUxzvvrNeiJxooEuh5odfgn//5OvzP//wcTz31c1x//SX6/vH4PD8DvTfjx4/Swo0irNso0ZSabw2VnedIISWE/V6vFhMUFRQZpvaFDE0VBGEgM3Q8F/4AfC0OBNVDmy4dzm7akwnJfvGLJ3DJJT86qTHx0PRiaeBKSvbjhz+8DpddthBjx47UBn/u3Cn47nev1K/Zi452dAlFAJMe/+VflqtjnavDABQE3N/3vneVFgb0IgSDIbFCdz2NNXvWDKfQs0BvBi+YHhCu22xO7WEYOTIPRUXD9PdOxdKl89Sxb8S8eVPCQsSKadMmaONN4WIMKcXARx99iYwMqxYic+ZM1tc6evRwXHTRAiVIblLH6zgWP8/zoyeC++wMjfuddz5wwn2+4orbsXz5T9S/w5NK1OzDddddogUcYW9+1arPdOiEIaUZMyYgKytdn8PChTPVvm7WIunw4Qr9+dORmpqMe++9TeegFBePRnJykvaWLF06X4dh6CGJ9FxQhDA8xdEr9DZ1F3rSErPTEJ+SiDh/EPFtPgTUb4RCgoKCOReSdyEIwmBgyIgLGrKAekhzyR5iXALLKoc3doMrr1yqjWTnxpECdNUThijoQl+8eJY2pjRKdJkz4XP27ElIT0/TRo497Wjg/tiWLJmj9pevkx65P+Y60ICnp6fq/fHSCD8zatRwnRtA403vAPMjeD4UAhQXfD8kLobpfIuvg9tnzizWx+Nx6Wlg3gbzJjgqgjkThMcvL6/QOSA8L14vP8/7Qu8Cz7+ziDACKzJnw8D3brjhshPuMwUNjf1lly3S51BaekSPNCE0uBR277+/Ab/73av46U8f1aNL7rrrYS1GWIeCgouhk2igWOAxKMy4v5/97DG9v1/+8in85S/v6fAQBVAkvF7SM+NvgSUhQf0+1b1Q99LC34f6P/dlBAa9GFxKWEQQhIHM0PFcED7vaQG1qOiBslBceeX52sB1bsuXX6ZDEYSzXHJY6ogR+Tp5MBImIlIcMCEwWrgv7jMkLE7cX35+tj4ue8paOCl43FGjCrRRZBiCYoLLG264FC0tdiU2qrU7f+fOMi0uIr0JXUGRQA9AJEwmZM+eRi7SA8ProoHNzT1x+l1eM88/KWLeDELhwfNmMmVnKGKuv/7Sk+71bbfdoD0jl166UIeXGPIh3A/zKVj7wuFoU4KsRa9TmFFQUAgsWjQT48YV6s+fDl4X80+YnMpaJMwfYWgmdAwWt3KdJCL0DKdKlBih2V204FUtvNBoYRwWGF6vVy9FXAiCMJAZWuKin6BxsVjitDHr7J2gwaKxMD3caKAhZ+iA+zMCwkBDw7cie/7DhmVrwUBvBYUFG7/3ne8s00aJSZ0mMZMGnyNIvo7Q9UQnxngePFbnkA/vQ+fz5z5zcjL0tmi9CRQcHJnDESS33votbeg5kscQCPhx9dUX6tyIl156QLeXX35Qt1deeUitP4irrloa/vTXw9EkL730rhYVl1++GL/+9d144YX78Mc/3qdDLDzvyH8OrvN8ThXm6RYUGOo3ZG477xsb//0oMERcCIIwkAn5X9ubEAuYA5Gdna7zJJiTEAkTKltbXRgxIi9qg01DxTwGehoYzoiEYQj2oCP3RwPM70yYMEr1urdqTwXrL9AoM1+D6+vWbdHDP2ncuwpJ9AQevrAwX/feOUImEl7zrl3l2qNg4PnyfCiQKHi6R+g3S0NurpvGmPuj94SjQ3oLcyd4HRMmFGlxwXwTemDovaBg6wwNflnZUSUcE04bajo94esKXxs9F9x/ZBMEQRioiOeiD6Ax4tBK1llgXgN71hQFNDwc2sleOmtlRGvUmUxIccC6EZs27dbDIc0IENa9YEiEo0hoaAmNEnMFmPBZUlKmR7hMnTpeGz3Wr+Dnd+w4oHv/FELGOPcW7ofnwRwMlhEvKzumr5v5J1u37sGf/rRKG2YDP8/z4lBZCrFooMFn2INC5a9//UCHmYYPD3leeD8vuWRh+/F57xkSobDh6BWOZHn++ZU6ETMaeH7MZ2lqsisxUasNOr09po5IZ+it4X1l6If5KH2B8WAIgiAMZERc9AH0GLAIEwXAZ59t0/UdOIfFm2+u1cNDGYo4//y5UYsLGiqOdqAooSeC+2NBKwoVTpjF0SFMlowUCUwaXbBghv4OczLopeBmGnPmbdB9v2DBNC1CYodFJ43yfMrLj2kD/+qra/DGGx/pvAXmebAHbs6TSya4cpWeBoqeyHlC+FmOPqGIMI1zf7B+CIflUpBwpIgp+EWPDUVbqEpmi64BwsJXnLflrbfWaUHA41BsRQNDV9w/R4SweFjo3/ATnX/R2HhirQwKC97rnTtLdeIr77MgCMJQRcRFlCQmxuvKkJ0TKruCIYqlS+fippuu0O7+p576K1aseE4bJ5a5XrbsfL00FRZpjHJyWPFUr560TjHC4aA337xMi5MnnngF99//nBIYH+rhlsuWLcGUKWPbjTahuGCFTg4DpTihJ4XbaYhpfDmaZP58iosTcwOYiGm1dgiO0Pqp5hphzkTHdh6e+2cIgWLmlVfe1+f5+OMv6yGwTHplLghFAKGnhaNQeK6sQUFPjJmfhQmRHELKa+UIDdN+8pPf4uGHX8DGjTvUtRfrfc6cGZoyn/srLh6FG2+8HFdcsUSPlnn88Zf0OTz99N+0x4IijPeK8Hx5DNbrCK1bwuuhMu48B/4b0jPComAccfLMM3/T58/hqPw9mCReemhYD4ThEg6FnThxjH5fEARhKGLZ/ejCdh/r9B9/GX51Im1VDahZuxU77votxv1gIcbfch4ypoxRD2M+1E9vbAcCPocLzdtLUfLzJ5E0zIJp9yxDzrxRsESZWMmS1SxmxV45jeHpoAudPXHG/5mDwF44e8I05mwcaWGgF4HGifUwaOA6rxP2jFn5s/P+GNag94HDPyMJJVB6tRuf2xg+oCFkUiV73U6nW4sWuvAjy0jzGlNTU7ThJKxMydoONJhdEdqeqketGCgQWEeDnhveB+6fx+WQUQqDa675O9x++7f1Z+niZwlw1v2gh+Cee/5JCwSGNrqaupz3gx4fGn4zioXXZe4T4bH4fYZPmJTJY4S+k6Q+z3ufor/De3jkSLV+j6IitF7VXhuD8Pv0SPDfkrkhvBaGStSZtP8bUXBSuFBE8t+DRbbomYo8p2gIePxo3nEMex54F5VlTcBN58M9MlP9iYXKfbPULsvs5ufnq3+7kUrEnlx4TBAEobcEgxyB14CA24cmPpN+tRoVx1rgu24hgmOU3VA2MC0tTT0rs1BQUICioiL9bIpExEU3Rm0I0cGwAXvw55wzXRtqzlXCEAbDExRp3/rWRSeM2ODIFYoahisYVomcd2WwwLwaekooSsaPL2wXZ91BxIUgCAOBWIgLCYsIMYdJm5yPg6W2mR/BPAWWBGdS5MKFM9pzJAz0BjFHheGdwSgsCENhPH9eX0+EhSAIwtmEiAsh5nAYZlZWBv7853dw//2/xxNPvKw9F9/4xgW46qoL+2wkhSAIgjAwUOKCURHTBKH3MJnx+9+/Gn/4w3/hrbcexWuvPaILUC1ffqnq1Wd3OxdBEARBGFyI50KIOSx5zgTP8eOL9MgUeio4kRpHlrDWhiAIgnB2I+JCEARBEISYIuJCEARBEISYEicpF4IgCIIgxBLL7t+e2y4rpt918nwJ5Kyoc2F3omHzHuy692nEp/lQ/KOlyJw2ApYEcd4IA4OANwD73mqUP70ONVUOYPl5cI/KBpITpc6FIAj9RmyKaA0RceFtbkXNx1uw98EXlNBoRN75E5EyIhOW8GRfgnCmCfoDaKu2oX5DGezBeOCac+GeWACkJom4EASh3xBx0Q08DS04/vo6lD75V9j2HkR8SqJU5xQGGEEEfQH427wIFOUDV8yBe/YYwJos4kIQhH5DxEU38NocqPtsB/aseF49wO0o/OYspI3JgyXKmUkFoa+hsHAebUDFWyVocvqBaxfBPV6JDCWERVwIgtBfiLjoBr5WFxq37MXOX/4OiZl+TLzjYmTNHIk48V4IA4SA14+W3ZUofexjVB+zAzcugbuIORcyt4ggCP2HiItu0NXEZdlzRyEuUcSFMDCQicsEQRgIxEJcxKndqIVpgiAIgiAIvUMSDgRBEARBiCkiLgRBEARBiCkiLgRBEARBiCkiLgRBEARBiCkiLgRBEARBiCkiLgRBEARBiCkiLgRBEARBiClxCAZZMSPUBEEQBEEQeol4LgRBEARBiClDS1xwenWLanTUSEVSYQAS1F5E9UL9THUTBEEYhAwZcWGJi0N8SpKeBTXoD+ia6YIwsAjq6daDPn9ICCclhMSwIAjCIGNIiYvELCviEhOUsPDCZ29jNzG8VRDOPMFAEN5mlxIYSvhytl5rSkhkCIIgDDKGjriIV+IiO0OLCz68vba2kAtaEAYKSly4Gx3aewH1O0U6xYWkRQmCMPgYWuIiIw0JmVY9tbXrWCPgF3EhDBwCvgDsZXXwOL2wUFjosEh4oyAIwiBCiQsaWNPOYiwWxCUlIrUwTz2v49FaWqtzLwRhIMCQiN/lgW1PFdwUvfkZEhIRBGHQMuR8rukTixCfZoVtXw18DrcIDGFAwARjd60drQdq4E1OAgpzw1sEQRAGH0NOXGRMGoeUEQVoq7Gh+asKeFtc4S2CcOZoq25B9Zp98PH3ODwbGJUX3iIIgjD4GHLiInPaOGROHYegH6h8uwSuiubwFkE4M9BrYT9Qg+Nv7oAnLQUYnQ/kZYS3CoIgDD6GnLhIGZ6HzBnjkTa2EHWflsK2t1oP/xOEM0XrwTrUbzyIpl2VCBSPCImL1KTwVkEQhMHHkBMXHDWSOWUcCi46F67jNjR8flD1Gqt1Qp0g9CvBIHwOD2o/3o/qNXsRSE4EFkwECnPCH+gaixTWEgRhgDPkxAWxji/EiL9fhMzpY3Wcu+LtnfA0OkRgCP2K3+1D1eqdOjzXUusAlk4P5VqkhLwWkXVYKCjiWGU2Pr69CYIgDFSGpLhgGfD04lEovu16JGXnom7tARx+4XO461oR8PrDnxKEvqOtqgWVq3bi8J++QHOlDYGJI2FZPBnICFXlpLAwjVBYsCUkJOjG14IgCAOVOE7gZf43ZFC9wKTsDIz8xhLkXTQfPl8Cjr++HRVv7kBrWS38Tk/4g4IQQ9SfGMWrvbQWVe/vwZG/bEL93hq4h+cCC4pDXgtW5uRHlagIBELDpI3XgqIiMTFRN/FcCIIwkBmy3R9LQjySh+VgxA0XI3vpPLQet2Pvg+/p3iSrJHrtbaEaGBIpEXoLhYISFV6bC47DDahQQrb8mc9Q+ckBeEcPAy6YCswcE/5wSFhEigsTDklKSmpvIi4EQRjIDHnfavr4Igy/7kIU/OBK+IJxOPD4Wuz8f2/iyIub0FZtU0ZBZk8VegfLzdMjduTPX2Lr7S+i9Km1aKl3ApfPgeWacwGOEAmHOYyo8Pv9ekmvBT0WycnJSElJQWpqqogLQRAGPJZdv57X3jefcfe28KsTaatqQM3ardhx128x7gcLMf6W85AxZYx68E1UWwf3kDm32w17QxPqS4+g7rPtaN6wE8GqOqQkWZBePEw36/h8pI3KRkJ6ChIzUxCXKA924dT4nB496y49Fc5jzXAcqg+1o41otatthbkITi6CZdJIYHjWSaEQIyy4zhAIBUVmZiays7ORk5Ojl+np6VpkCIIgxJpg8Kj6b4OuwdO04xj2/Go1Ko61wHfdQgTH5CMpPQ1paWnIyspCQUEBioqK9DMqkl6Ki2K1NTn0oUEKH+Qulwu2lhY019ajfmMJbJv2om3PUfgbWpCSlghrQTqsIzKRkJEaEhdJIi6EU8PhpVpctLjgqLbB2eiCxxdEMCsVlvHDgemjgDHDQrOehulKWNA7QW9FRkaG/sOlsOAfM1/zffFeCIIQexiWPaaWZ0xcjFbiYoLaygfk4B537/F44HQ6YbPZ0EKRUVWLltKjcG4rRWDPMQQrG2Gxu8ApsdVdh4V37IRLlroDQgT8OXDSMYY6sq0hQTF5ZCj8EeGpMHQlLJhnwVAIPRT8AzaNQsNqtWqPhiAIQuzxq2fQcbVsPJPiYqzamqra4O5B8aHe1tamBYbdboetuQUtjU2w1TXAZbPD63DB73QDjjbEq16pxR9QtiNOx8OloJHQmSCra6Ynw2INT5se2eKV4Aj/ZigiOgsLYpI3GQ4xooJ/uBQW/IOm6BCvhSAIsYdywKueSxVq2dxbcTE3QlxsD786kbbqBtSu3Ybtd/0G425diHG3LEbmVIqLIrU1XbXB3YviA54Pd+ZfOByOkMAIezG47lKiw+1qg7/NA3h8UFZAdU6VgdDigh1VERhCB8EEJSCUkLAwN0f/QE7+fRhhYV4bKBooHviHSw+FERb0YHDdCAsRtYIgxB4+i5zqmVStlraQuNh2FHtWvBMSF9cvUuIiD0nWGIkLd30z6tZ/ha23P4Qx/zBfi4vsWWPVAy5fbWWp4o7Y8WDFCAzjwWhtbdXigksKDL5H8RHpuhaEWBBZx4IeC/7RUkywGWHB90yehQgLQRD6BnpPm5V9q1dLh+pQe1G38SD2P/geqmqd8N24GMGROUpcpJ5WXEQ1FDUuKRGJmWmwxFl0eCBUZIoGlhN+nR1DNfnA5sOdD3DzcOeNi+w58n32HBnv5mf5oKdRkCatJ42/H1MYi78rhkGMoDC/O5Njwd8lPyvCQhCEvoN23amWXr0W9AfhbnDAp0RGMDEewbTkUD5ZFETluWA4oGX3Qay/9j9RcPEEjLvlPAy/ZKrawofdKLXMUu3seOgZDwa9FPRWsNFzQQ8GX9OzwQRQn8+nPyteDKEnGG+FEbX0WFBAUEiYRjFrBK14LARB6HuYb3FYLSkwArqYZPmfN+HI8xvQmJgE7z9dBEtyIpLCodteh0VYqbK1/DjWX/efSC/OxNh/WIjRNy1QW5hzUKCWDI0wsfPsIFJgsHGoKoUFlxQXfI8CQ0IkQk+hUDCeLwoLCgiKC3ov+EfLJd8TYSEIQv9Ab0WrsmeV4ddBuBsdKLn/XdR8uA/24Tnw/uMFemZxE77ttbggropabP7RffDZm1H0rVmYfPfl4S3p6sGXq5ZsZ88D0AgMeii8Xm+7qDDCwngv+BkRF0J3MeLCeC2MwDAig+vcLsJCEIS+hzaM3oo6Zc9saqnsWiAIV2UzvrztRTQfa4F7xmh4vjFXP49iKi7c9U3Y/+sXUP3BJuSfNxpzHrkBcRxaZ+GQuBx1wBFqyVEjZ9+DMFJkcBnZjPdCELpDZM5FZIvM5xEEQegfmDvJRE56LWjPVOfa5YFtTzU+/86zcORmw79kCjxzWTwzanExJ0Jc7Ai/Ohmf3YHKd9aj9IlXkZQbhxn3XoWsGYWIS1YCQ1fpzFYHZYiE62cf9E4YD0Xn14LQE4xHgsuuXguCIPQ9tGeNasnWqt8h9rJaPVv4gd+sgWfxVPiXToNnGCMVMRYXnMDLdbwGO3/5O9hLy1B4zSxM+te/Q2J2mtrKQScUGPnqwDyAzHkgCIIgCAMb5gza1ZLCgks/39T1Lao/3IvdD70PW7UdgWXz4Z8/Hh5duic6cRHVUFQSl5CAtDEjkD1nEuKSUlH3yX60HmpoH5YKuFVrUifKeE2batKjFwRBEISBSSiBk3abNS2MsCD20lrUbyxHy95qBCYXAaPzEEw5sVgmRYYZVt+VtzVqccFUCkt8PPIWz0Lm1GLY9tWgbu0BuCqadeJHSGDwROuVwGhWS554KHYjCIIgCMJAgDbZjAypVcuW8HoozO9rdWuvRfUn+xFgXYuFExEcnt2+3YgKk3DOHLGuxQWPY1oU5MybgmEXzkVSThbKn1uP+i8O6hkgO+DrBnUSrE1ON8vZUWRLEARBEAY3NPQs712rWo16TY9Fx4AERiIq3ypB1aoS2BpcwAXTgMJcBJMTtLAwGIFhEtH5ujPRey7CJFhTkXvuDIz77pXqRPyoeH07KtWJ+OzusAeDrUMVhS6gQTVeBIVGlCpGEARBEIRewnAHq2lzNEh12CbTW8FUhg5hwSgEhcXhP36OljoHgpOLYFk4CUFrirbaHBUZKSo4so25F1x25bmw7HokIqHzP06d0BmJ3+WGvewYdtz/HJx7DyKzOBdjbl6A/PMnIjnfGhqi2k5oNInFwiJbTPrkOofZSUa8IAiCIPQNWhKoRnGhOv9BRhXY2PkPm321CHj9aD1Yh/r1Zah4uwT1u6rgm1QELFLCYsZo9b2gLrtgSi5QUHCaguzsbOTl5SE/P18nc7JGTyQ9EhfE0+pE2bpNqPj923Bs3Ye04emYcvdlyD1nDFJGZiE+NUnPRXIyFBamcbuIDEEQBEGIHTTrFBWmtZv5EEowUFT4HB64a2049uo2HF+1E82ldcDccbBcPBPBiSMRVOaZtZxMsUh6LFg9mGIiJycHubm5esnpCujBiKTH4sLn9aK2shq1W/egbtUG2FZ/gcSUeAy/eDIKr56NgounIjE79RQCw7wnwkIQBEEQYkukmOgkLBSc7bS1vA41a/bqWhat5fXwWFMQmDcBliVTEcxLRzA+Hv5Ah7Bg8mak14KNwoJCg1WFOxf+67G44AHtdjuaqmrRuLscjRtL0PrFHiQ6HEjLTkF68TBYJ6g2Pg8pBZlIyEhBYmayOmK30zwEQRAEQeghnM2ck5B5W1xwHm2C41B9qB1vQqvdC//ofASnFMJSPALBgiwlLOJO8Fgwz4LCgh4KigkKC9a44GuKja5GjPRYXDD+wvk2OFuorbkZzcer0bh+J5zbS+E9VAW0OpGanoz0kUrVKBWUkKnEhRIY0U7XKgiCIAhC7/E7PCFxYXPBUW2Hs8kJbwAIZllhGV+A4PRRwKh8wJqsbTubERYUDaZoVkZGhhYVbHxNYUGvRVejRXosLkySB2cK5ZTk9GLYbDY0Ha2EY99RuEsOIrivAqi3AS6PUiPqMOo75GR5IYJDEARBEPoE2n56FhLigWwKiuHApJHABLWkpyIhTtt0IyzYjMeCuRTMs6CQMN4KCgt6Mfh+V14LosTF7Ahx8VX4VXTw4GbGUCMwWpqaYVfN0dQCl80On7NNqaY2BO0uxLW6tYzQw1lUs6gT16fUxYkJgiAIgtB7gmlJQHoKLNZkIDEB4IhOtdSiIs6i+v4dwsJ4K0yBLHosTDgkUljQY3GqYaikV+KC8GTowYgUGGwMl7C1udrgcbngc7kRdHvD3gtOzsRvdywFQRAEQegDEuM7WoQYoJCIXBKKBYoKhkIoIOixYKOoiBQW/ExX4RBDr8UF6Sww2Iy4cDqdOnTCbYzhRKojQRAEQRDOLDqaoIQCGz0WFA8MedBrYcQFRUW0woLERFwQigWTg2GaERcUG1y63e72YhwmWcR8VxAEQRCE/sGEM0wIhGKBooHFsEwoxIgLCg3T+JlThUIiiZm4IBQJzMHweDy6UVDQY8ElhQYFB9/nZygy+HnxYgiCIAhC/2K8FVxSMJhy3hQQFBQUFkZQ8H22r8ux6ExMxQUxYQ96Jigk6K0wAoPigutsFBj8TKQHQxAEQRCEvsd4LNgoGuixYKOYoLBg+IPrFBXGs3G6UEgkMRcXBgoGIx4iRYZ5bbwXxoMhCIIgCEL/YDwWxmthxIVpRlSwReutiMSy6+FZHeLiJyXhV7GFngyKiUhBYRrFB7cLgiAIgtA/0AtB4WAERqTQYOuOl6Ir+kVcEHonjIfiVEtBEARBEPoe443oatkTT0Vn+k1cCIIgCIIwNOid30MQBEEQBKETIi4EQRAEQYghwP8BocP18aciyEYAAAAASUVORK5CYII=;" vertex="1" parent="1">
                    <mxGeometry x="90" y="585" width="535" height="547" as="geometry"/>
                </mxCell>
                <mxCell id="11" style="edgeStyle=none;html=1;exitX=1;exitY=0.5;exitDx=0;exitDy=0;strokeColor=#FF0000;fillColor=#e51400;endArrow=open;endFill=0;entryX=0;entryY=0.5;entryDx=0;entryDy=0;" edge="1" parent="1" source="4" target="18">
                    <mxGeometry relative="1" as="geometry">
                        <mxPoint x="190" y="90" as="targetPoint"/>
                    </mxGeometry>
                </mxCell>
                <mxCell id="4" value="" style="ellipse;whiteSpace=wrap;html=1;aspect=fixed;" vertex="1" parent="1">
                    <mxGeometry x="72" y="72" width="15" height="15" as="geometry"/>
                </mxCell>
                <mxCell id="5" value="" style="rounded=1;whiteSpace=wrap;html=1;" vertex="1" parent="1">
                    <mxGeometry x="280" y="460" width="120" height="60" as="geometry"/>
                </mxCell>
                <mxCell id="17" style="edgeStyle=none;html=1;entryX=0.5;entryY=0;entryDx=0;entryDy=0;strokeColor=#FF0000;endArrow=open;endFill=0;exitX=0.5;exitY=1;exitDx=0;exitDy=0;" edge="1" parent="1" source="19" target="14">
                    <mxGeometry relative="1" as="geometry">
                        <mxPoint x="310" y="160" as="sourcePoint"/>
                        <Array as="points">
                            <mxPoint x="300" y="160"/>
                            <mxPoint x="160" y="160"/>
                        </Array>
                    </mxGeometry>
                </mxCell>
                <mxCell id="14" value="Logged out" style="swimlane;fontStyle=1;align=center;verticalAlign=middle;childLayout=stackLayout;horizontal=1;startSize=30;horizontalStack=0;resizeParent=0;resizeLast=1;container=0;fontColor=#000000;collapsible=0;rounded=1;arcSize=30;strokeColor=#ff0000;fillColor=#ffffc0;swimlaneFillColor=#ffffc0;dropTarget=0;" vertex="1" parent="1">
                    <mxGeometry x="80" y="200" width="160" height="60" as="geometry"/>
                </mxCell>
                <mxCell id="15" value="Author Timeline" style="text;html=1;strokeColor=none;fillColor=none;align=center;verticalAlign=middle;spacingLeft=4;spacingRight=4;whiteSpace=wrap;overflow=hidden;rotatable=0;fontColor=#000000;" vertex="1" parent="14">
                    <mxGeometry y="30" width="160" height="30" as="geometry"/>
                </mxCell>
                <mxCell id="18" value="Logged out" style="swimlane;fontStyle=1;align=center;verticalAlign=middle;childLayout=stackLayout;horizontal=1;startSize=30;horizontalStack=0;resizeParent=0;resizeLast=1;container=0;fontColor=#000000;collapsible=0;rounded=1;arcSize=30;strokeColor=#ff0000;fillColor=#ffffc0;swimlaneFillColor=#ffffc0;dropTarget=0;" vertex="1" parent="1">
                    <mxGeometry x="220" y="49" width="160" height="60" as="geometry"/>
                </mxCell>
                <mxCell id="19" value="Public Timeline" style="text;html=1;strokeColor=none;fillColor=none;align=center;verticalAlign=middle;spacingLeft=4;spacingRight=4;whiteSpace=wrap;overflow=hidden;rotatable=0;fontColor=#000000;" vertex="1" parent="18">
                    <mxGeometry y="30" width="160" height="30" as="geometry"/>
                </mxCell>
                <mxCell id="21" value="&lt;font color=&quot;#000000&quot;&gt;a&lt;/font&gt;" style="text;html=1;strokeColor=none;fillColor=none;align=center;verticalAlign=middle;whiteSpace=wrap;rounded=0;" vertex="1" parent="1">
                    <mxGeometry x="170" y="140" width="60" height="30" as="geometry"/>
                </mxCell>
            </root>
        </mxGraphModel>
    </diagram>
</mxfile>